<svg width="1174" height="229" viewBox="0 0 1174 229" fill="none" xmlns="http://www.w3.org/2000/svg">
<path d="M-133 229C346.321 229 825.641 229 1304.96 229" stroke="url(#paint0_linear_342_2679)" stroke-opacity="0.05" stroke-miterlimit="10"/>
<path d="M-133 222.605C109.716 222.652 352.312 221.509 594.968 220.215C699.959 219.652 805.669 219.837 910.651 221.023C1042.06 222.506 1173.54 221.109 1304.92 222.605" stroke="url(#paint1_linear_342_2679)" stroke-opacity="0.05" stroke-miterlimit="10"/>
<path d="M-133 216.304C-64.2275 216.304 4.56498 216.532 73.3275 216.42C134.78 216.321 196.093 214.177 257.526 213.807C371.964 213.119 486.382 213.919 600.81 213.107C702.376 212.385 804.99 210.472 906.486 213.39C965.643 215.109 1024.19 215.892 1083.4 216.601C1157.29 217.486 1231.1 215.084 1304.96 216.304" stroke="url(#paint2_linear_342_2679)" stroke-opacity="0.05" stroke-miterlimit="10"/>
<path d="M-133 210.09C-65.2161 210.09 2.74756 210.58 70.5115 210.051C134.191 209.552 197.501 206.058 261.131 205.16C375.789 203.54 489.547 208.168 604.085 207.343C704.872 206.63 804.231 200.836 905.128 206.02C964.105 209.05 1021.25 211.422 1080.66 212.114C1155.55 212.973 1230.08 208.792 1304.96 210.09" stroke="url(#paint3_linear_342_2679)" stroke-opacity="0.05" stroke-miterlimit="10"/>
<path d="M-133 203.995C-66.4443 203.995 0.600606 204.777 67.1063 203.699C133.612 202.62 199.169 197.656 265.475 196.053C325.75 194.596 385.175 194.987 445.13 198.159C498.864 201.004 551.06 203.058 605.233 202.749C652.716 202.474 697.203 199.371 744.097 196.478C797.761 193.165 853.012 194.712 906.177 198.932C964.694 203.583 1019.89 208.031 1079.64 208.538C1155.01 209.183 1229.54 202.882 1304.96 203.995" stroke="url(#paint4_linear_342_2679)" stroke-opacity="0.05" stroke-miterlimit="10"/>
<path d="M-133 197.987C-67.8823 197.987 -1.77603 199.04 63.2318 197.355C132.693 195.559 200.977 189.052 270.288 186.611C329.799 184.487 389.708 185.943 448.286 190.934C500.582 195.327 551.14 199.25 604.594 199.07C654.094 198.902 698.881 193.509 746.933 189.146C801.475 184.195 855.449 186.073 909.163 192.077C966.731 198.524 1019.88 205.469 1080.04 205.654C1155.54 205.891 1229.33 197.265 1304.96 197.991" stroke="url(#paint5_linear_342_2679)" stroke-opacity="0.05" stroke-miterlimit="10"/>
<path d="M-133 192.073C-69.4201 192.047 -4.28247 193.362 59.0777 191.063C131.815 188.446 202.874 180.37 275.341 176.996C336.155 174.168 392.355 176.799 451.012 183.903C501.231 189.989 549.872 196.083 602.547 196.096C654.633 196.096 700.968 187.994 750.398 182.081C806.708 175.346 858.634 177.306 913.656 185.442C969.657 193.719 1021.07 203.492 1081.57 203.278C1156.96 202.985 1229.36 191.875 1304.96 192.073" stroke="url(#paint6_linear_342_2679)" stroke-opacity="0.05" stroke-miterlimit="10"/>
<path d="M-133 186.254C-71.0279 186.215 -6.8688 187.676 54.7339 184.848C130.806 181.359 204.522 171.723 280.324 167.373C341.987 163.836 395.511 167.618 453.219 177.082C500.831 184.891 547.595 193.354 599.412 193.62C654.174 193.904 703.544 182.777 754.192 175.286C812.679 166.634 862.619 168.474 919.138 179.016C972.962 189.056 1023.15 201.945 1083.9 201.223C1159.03 200.329 1229.52 186.666 1304.94 186.254" stroke="url(#paint7_linear_342_2679)" stroke-opacity="0.05" stroke-miterlimit="10"/>
<path d="M-133 180.529C-72.6156 180.477 -9.45513 182.033 50.4799 178.737C129.807 174.375 206.189 163.226 285.147 157.905C348.058 153.663 398.546 158.52 455.036 170.476C499.713 179.932 544.589 190.852 595.687 191.428C653.126 192.069 706.46 177.615 758.276 168.731C785.418 164.103 814.027 159.766 843.616 160.763C872.574 161.743 899.996 166.991 925.32 172.797C976.367 184.474 1026.1 200.548 1086.84 199.319C1161.63 197.802 1229.77 181.595 1304.97 180.542" stroke="url(#paint8_linear_342_2679)" stroke-opacity="0.05" stroke-miterlimit="10"/>
<path d="M-132.951 174.903C-74.0347 174.839 -11.9028 176.433 46.3946 172.754C128.748 167.571 207.516 154.983 289.4 148.742C353.749 143.834 401.321 149.675 456.284 164.094C497.954 175.028 540.953 188.39 591.592 189.297C651.507 190.367 709.425 172.514 762.23 162.409C789.891 157.114 820.397 151.532 851.294 152.761C880.253 153.913 907.384 160.205 931.6 166.729C979.881 179.743 1029.1 199.061 1090 197.338C1164.47 195.223 1229.98 176.554 1304.98 174.903" stroke="url(#paint9_linear_342_2679)" stroke-opacity="0.05" stroke-miterlimit="10"/>
<path d="M-132.939 169.376C-75.431 169.299 -14.2178 170.893 42.5917 166.944C127.631 161.025 208.517 147.109 292.937 140.035C325.081 137.344 355.548 135.789 387.033 140.508C412.687 144.354 435.255 151.106 457.024 157.931C495.969 170.133 537.081 185.781 587.599 187.006C649.711 188.514 712.282 167.425 765.946 156.289C794.086 150.448 826.47 143.684 858.545 145.115C887.634 146.404 914.406 153.655 937.583 160.815C983.298 174.929 1031.93 197.269 1093.15 195.107C1167.36 192.481 1230.15 171.499 1305.02 169.355" stroke="url(#paint10_linear_342_2679)" stroke-opacity="0.05" stroke-miterlimit="10"/>
<path d="M-132.93 163.939C-76.6295 163.858 -16.2451 165.444 39.2562 161.313C126.453 154.824 208.876 139.713 295.423 131.972C327.677 129.088 358.054 127.3 389.38 132.656C414.794 137.026 436.453 144.526 457.164 152.022C493.822 165.272 533.216 182.884 583.984 184.367C616.428 185.317 649.052 178.032 677.072 171.865C708.158 165.022 738.046 157.226 769.122 150.375C797.681 144.083 831.633 136.365 864.786 137.976C894.084 139.399 920.437 147.388 942.785 155.082C986.404 170.124 1034.12 194.991 1095.93 192.473C1170 189.464 1230.17 166.394 1305.03 163.922" stroke="url(#paint11_linear_342_2679)" stroke-opacity="0.05" stroke-miterlimit="10"/>
<path d="M-132.92 158.602C-77.6283 158.52 -17.883 160.11 36.5498 155.903C125.284 149.047 208.666 132.905 296.661 124.683C328.766 121.675 359.372 119.753 390.378 125.491C415.762 130.189 436.772 138.333 456.734 146.344C491.864 160.437 529.771 179.51 581.158 181.157C614.491 182.214 648.063 174.323 676.523 167.799C708.647 160.428 739.433 152.039 771.558 144.659C800.517 138.002 835.467 129.677 869.509 131.375C899.117 132.853 925.02 141.341 946.76 149.477C989.03 165.289 1035.28 191.94 1098.08 189.254C1172.16 186.086 1230.03 161.163 1305.04 158.619" stroke="url(#paint12_linear_342_2679)" stroke-opacity="0.05" stroke-miterlimit="10"/>
<path d="M-132.9 153.358C-78.3877 153.289 -19.0119 154.91 34.6221 150.736C124.105 143.774 207.717 126.785 296.391 118.339C328.056 115.331 359.232 113.371 389.799 119.147C415.392 123.982 436.113 132.565 455.705 140.916C490.276 155.675 527.064 175.513 579.53 177.112C613.601 178.152 647.264 170.18 676.123 163.359C708.926 155.623 740.282 146.804 773.075 139.059C802.404 132.131 837.504 123.673 872.245 125.358C902.202 126.81 927.666 135.453 949.136 143.937C991.076 160.505 1035.12 187.831 1099.39 185.171C1173.66 182.098 1229.78 155.64 1305.1 153.367" stroke="url(#paint13_linear_342_2679)" stroke-opacity="0.05" stroke-miterlimit="10"/>
<path d="M-132.891 148.201C-78.5776 148.055 -19.3915 149.877 34.0128 145.622C122.887 138.526 205.43 121.03 293.405 112.387C324.98 109.288 356.136 107.432 386.683 113.139C412.646 118 433.776 126.686 453.658 135.14C488.868 150.113 526.045 170.206 579.2 172.08C613.511 173.287 646.974 165.414 675.963 158.486C708.816 150.629 740.112 141.638 772.955 133.777C802.423 126.72 837.344 118.378 872.344 120.183C902.502 121.739 927.816 130.399 949.325 138.978C991.436 155.778 1034.64 182.742 1099.42 180.237C1173.9 177.366 1229.44 150.186 1305.07 148.201" stroke="url(#paint14_linear_342_2679)" stroke-opacity="0.05" stroke-miterlimit="10"/>
<path d="M-132.881 143.159C-78.3382 142.893 -19.3318 145.192 34.2622 140.641C121.558 133.227 202.244 115.443 288.612 106.495C320.566 103.181 350.903 101.457 381.889 107.204C408.322 112.099 430.201 120.695 450.812 129.075C487.19 143.886 525.935 164.18 579.09 166.737C613.191 168.379 646.774 160.484 675.513 153.56C707.967 145.742 738.793 136.743 771.237 128.916C800.646 121.821 835.566 113.543 870.517 115.688C900.584 117.531 926.268 126.316 948.077 134.8C990.407 151.261 1034.86 177.718 1098.86 175.286C1173.52 172.445 1229.24 145.111 1305.05 143.159" stroke="url(#paint15_linear_342_2679)" stroke-opacity="0.05" stroke-miterlimit="10"/>
<path d="M-132.86 138.204C-78.0081 137.886 -19.1615 140.826 34.762 136.008C120.281 128.366 198.859 110.35 283.41 101.195C315.634 97.6969 345.262 96.1367 376.597 101.81C403.439 106.671 426.197 115.043 447.577 123.359C485.174 137.972 525.706 158.193 578.811 161.369C612.603 163.394 645.926 155.662 674.405 148.768C706.31 141.032 736.487 132.088 768.372 124.356C797.69 117.248 832.281 109.206 867.072 111.656C897.169 113.779 923.312 122.603 945.611 130.996C988.5 147.113 1034.41 172.909 1097.92 170.511C1172.91 167.683 1228.94 140.172 1305.08 138.23" stroke="url(#paint16_linear_342_2679)" stroke-opacity="0.05" stroke-miterlimit="10"/>
<path d="M-132.84 133.343C-77.6081 133.038 -18.7915 136.756 35.5115 131.693C119.073 123.909 195.365 105.708 277.928 96.3947C310.282 92.7458 339.351 91.3748 370.946 96.8846C398.267 101.647 421.874 109.778 444.082 117.944C483.247 132.294 525.197 152.224 578.452 155.984C611.845 158.339 644.578 150.943 672.778 144.096C703.984 136.515 733.392 127.649 764.578 120.059C793.787 112.946 827.709 105.304 862.29 108.025C892.527 110.41 919.209 119.199 942.176 127.477C985.924 143.237 1033.48 168.242 1096.65 165.856C1172.09 163.007 1228.55 135.312 1305.15 133.356" stroke="url(#paint17_linear_342_2679)" stroke-opacity="0.05" stroke-miterlimit="10"/>
<path d="M-132.83 128.577C-77.149 128.336 -18.3524 132.948 36.44 127.666C117.904 119.814 191.77 101.449 272.206 92.084C304.54 88.3105 333.209 87.1372 364.964 92.4063C392.775 97.0222 417.21 104.87 440.327 112.787C481.269 126.81 524.498 146.262 577.952 150.565C642.461 155.761 707.648 128.719 759.924 115.971C789.023 108.871 822.026 101.758 856.308 104.737C886.785 107.389 914.026 116.092 937.782 124.245C982.639 139.635 1031.97 163.746 1094.98 161.348C1170.98 158.46 1227.98 130.562 1305.13 128.577" stroke="url(#paint18_linear_342_2679)" stroke-opacity="0.05" stroke-miterlimit="10"/>
<path d="M-132.811 123.909C-76.6402 123.776 -17.8335 129.376 37.528 123.909C116.806 116.053 188.125 97.6023 266.324 88.2073C298.548 84.3392 326.938 83.3765 358.783 88.3405C387.102 92.763 412.387 100.263 436.412 107.93C479.132 121.554 523.649 140.357 577.373 145.192C640.903 150.9 703.284 124.64 754.591 112.099C782.961 105.175 816.034 98.1954 849.377 101.763C880.333 105.072 907.605 113.096 932.709 121.262C978.854 136.261 1030.08 159.397 1093.09 156.973C1169.74 154.029 1227.35 125.921 1305.15 123.879" stroke="url(#paint19_linear_342_2679)" stroke-opacity="0.05" stroke-miterlimit="10"/>
<path d="M-132.791 119.332C-76.0914 119.332 -17.2249 126.007 38.7558 120.338C115.777 112.537 184.479 94.0094 260.372 84.666C392.185 68.4245 460.947 128.384 576.733 139.859C639.145 146.052 698.371 120.738 748.749 108.45C776.989 101.574 808.784 95.3117 841.708 99.0809C873.053 102.67 900.964 110.517 927.076 118.529C974.659 133.141 1027.87 155.223 1091.01 152.761C1168.37 149.752 1226.66 121.425 1305.18 119.332" stroke="url(#paint20_linear_342_2679)" stroke-opacity="0.05" stroke-miterlimit="10"/>
<path d="M-132.771 114.854C-75.5217 115.034 -16.5553 122.805 40.0944 116.968C114.818 109.271 180.895 90.7 254.421 81.4382C383.508 65.1838 462.126 122.268 576.045 134.564C637.378 141.191 693.049 116.998 742.509 104.947C770.629 98.0966 801.036 92.6598 833.49 96.6009C865.255 100.469 893.874 108.119 921.036 115.963C970.146 130.145 1025.39 151.166 1088.8 148.648C1166.92 145.549 1225.93 117.016 1305.21 114.854" stroke="url(#paint21_linear_342_2679)" stroke-opacity="0.05" stroke-miterlimit="10"/>
<path d="M-132.75 110.47C-74.932 110.835 -15.8457 119.74 41.513 113.758C113.95 106.202 177.32 87.6099 248.569 78.4727C374.92 62.2656 463.265 116.229 575.336 129.346C635.571 136.395 687.457 113.393 736.048 101.578C764.069 94.7658 792.968 90.2015 824.922 94.2715C857.127 98.3932 886.485 105.876 914.725 113.526C965.413 127.279 1022.69 147.204 1086.42 144.629C1165.31 141.436 1225.11 112.688 1305.17 110.453" stroke="url(#paint22_linear_342_2679)" stroke-opacity="0.05" stroke-miterlimit="10"/>
<path d="M-132.73 106.181C-74.3532 106.735 -15.0972 116.779 43.0204 110.672C113.221 103.288 173.975 84.6874 242.927 75.7049C366.592 59.5923 464.383 110.315 574.617 124.219C633.763 131.68 681.755 109.903 729.517 98.3158C757.418 91.5467 784.909 87.8807 816.334 92.0968C848.988 96.4806 879.115 103.774 908.414 111.235C960.689 124.558 1019.99 143.383 1084.11 140.744C1163.83 137.46 1224.37 108.51 1305.23 106.181" stroke="url(#paint23_linear_342_2679)" stroke-opacity="0.05" stroke-miterlimit="10"/>
<path d="M-132.711 101.99C-73.7945 102.73 -14.3387 113.887 44.4479 107.676C112.491 100.486 170.679 81.8895 237.434 73.0832C358.652 57.0953 465.511 104.518 573.957 119.199C632.025 127.064 676.112 106.512 723.096 95.1311C750.876 88.405 777.019 85.6372 807.846 89.9737C840.949 94.624 871.835 101.75 902.182 109.005C955.996 121.872 1017.27 139.635 1081.84 136.94C1162.35 133.567 1223.64 104.38 1305.29 101.999" stroke="url(#paint24_linear_342_2679)" stroke-opacity="0.05" stroke-miterlimit="10"/>
<path d="M-132.69 97.8903C-73.1848 98.8057 -13.5893 111.033 45.9164 104.737C111.913 97.7528 167.644 79.1689 232.322 70.5518C351.214 54.71 466.62 98.8401 573.249 114.299C630.348 122.577 670.491 103.164 716.825 92.0108C744.516 85.3492 769.291 83.4152 799.598 87.8763C833.13 92.7931 864.766 99.777 896.101 106.821C951.393 119.246 1014.55 135.965 1079.57 133.201C1160.85 129.742 1222.85 100.344 1305.25 97.8903" stroke="url(#paint25_linear_342_2679)" stroke-opacity="0.05" stroke-miterlimit="10"/>
<path d="M-132.67 93.8891C-72.6051 94.9549 -12.8398 108.188 47.3349 101.827C111.444 95.0538 164.868 76.4699 227.609 68.0548C288.473 59.8889 353.221 69.1078 410.071 78.9584C464.893 88.4609 517.009 100.925 572.65 109.542C629.03 118.275 664.989 99.7771 710.974 88.9122C772.038 74.4929 834.579 92.7802 890.47 104.638C947.099 116.637 1012.04 132.359 1077.48 129.535C1159.48 126.002 1222.16 96.399 1305.29 93.8848" stroke="url(#paint26_linear_342_2679)" stroke-opacity="0.05" stroke-miterlimit="10"/>
<path d="M-132.65 89.978C-72.0263 91.1685 -12.2511 105.317 48.6925 98.9089C111.094 92.3418 162.391 73.7709 223.445 65.5405C283.749 57.4004 350.205 66.2411 407.324 75.2622C463.255 84.0986 516.489 95.7672 572.12 104.947C627.752 114.128 660.246 96.5365 705.641 85.8263C765.317 71.7509 830.464 91.4135 885.386 102.437C943.204 114.042 1009.79 128.809 1075.6 125.947C1158.23 122.349 1221.53 92.5481 1305.27 89.978" stroke="url(#paint27_linear_342_2679)" stroke-opacity="0.05" stroke-miterlimit="10"/>
<path d="M-132.631 86.1658C-71.4376 87.4551 -11.7123 102.394 49.9403 95.9477C110.854 89.5826 160.264 71.0202 219.7 62.9489C279.545 54.8475 347.518 63.3271 404.897 71.6004C461.816 79.8136 516.119 90.7817 571.661 100.525C597.864 105.119 617.066 105.308 642.4 99.3816C662.991 94.5638 680.407 87.5669 700.967 82.7146C728.399 76.2335 750.248 76.414 778.977 81.2319C813.498 87.0296 847.13 93.6956 881.002 100.172C939.789 111.381 1007.82 125.289 1073.93 122.401C1157.13 118.765 1220.96 88.766 1305.3 86.1658" stroke="url(#paint28_linear_342_2679)" stroke-opacity="0.05" stroke-miterlimit="10"/>
<path d="M-132.61 82.444C-70.8479 83.7333 -11.3023 99.386 51.0693 92.9178C110.775 86.7246 158.497 68.0935 216.734 60.2285C276.27 52.1872 345.492 60.3144 403.1 67.9646C460.709 75.6147 516.02 86.0154 571.382 96.3302C596.965 101.097 615.669 101.771 640.783 95.8747C660.695 91.1986 677.311 84.2963 697.173 79.5859C724.455 73.1134 745.964 73.801 774.194 78.7779C808.885 84.8937 843.037 91.5468 877.548 97.8431C937.073 108.699 1006.43 121.834 1072.64 118.937C1156.3 115.279 1220.56 85.1 1305.31 82.4826" stroke="url(#paint29_linear_342_2679)" stroke-opacity="0.05" stroke-miterlimit="10"/>
<path d="M-132.591 78.8252C-70.2492 80.0801 -11.0431 96.2744 52.0275 89.7889C110.844 83.7333 157.079 64.9604 214.507 57.3274C273.963 49.4151 343.934 57.1727 401.901 64.277C460.339 71.4329 516.13 81.3996 571.261 92.2817C596.326 97.2242 614.82 98.2643 639.744 92.3676C659.117 87.7905 675.064 80.9311 694.377 76.3109C721.528 69.8169 743.018 70.8699 770.818 76.0359C805.559 82.4826 840.11 89.1529 875.151 95.316C935.066 105.859 1005.59 118.314 1071.74 115.438C1155.73 111.785 1220.3 81.434 1305.41 78.8252" stroke="url(#paint30_linear_342_2679)" stroke-opacity="0.05" stroke-miterlimit="10"/>
<path d="M-132.57 75.2966C-69.6595 76.4356 -10.9627 93.0209 52.8069 86.5183C111.014 80.583 156.25 61.7284 212.99 54.1857C272.256 46.3121 343.145 53.902 401.263 60.5637C460.299 67.3328 516.34 77.0287 571.212 88.4996C595.867 93.657 614.461 94.9034 639.256 88.968C658.229 84.4252 673.677 77.5616 692.62 72.9758C719.672 66.4259 741.461 67.6637 768.932 73.0661C803.603 79.8824 838.413 86.5999 873.843 92.6599C933.938 102.936 1005.28 114.832 1071.16 112C1155.35 108.386 1220.08 77.871 1305.39 75.2966" stroke="url(#paint31_linear_342_2679)" stroke-opacity="0.05" stroke-miterlimit="10"/>
<path d="M-132.541 71.8584C-69.3107 72.8812 -11.0233 89.6471 53.1358 83.0843C111.144 77.1533 156.11 58.3159 212.67 50.8162C271.876 42.9683 343.085 50.713 401.222 57.2328C460.468 63.8773 516.329 73.5001 571.271 85.0226C595.836 90.18 614.69 91.2545 639.315 85.3579C658.158 80.8451 673.506 74.0417 692.35 69.516C719.311 63.0435 741.5 64.2469 768.711 69.804C803.232 76.8524 838.083 83.6215 873.663 89.6213C933.468 99.7083 1005.74 111.471 1071.11 108.532C1155.18 104.758 1220.33 74.7594 1305.42 71.8713" stroke="url(#paint32_linear_342_2679)" stroke-opacity="0.05" stroke-miterlimit="10"/>
<path d="M-132.521 68.4759C-69.1503 69.4473 -11.0327 86.3248 53.2761 79.6847C111.194 73.7021 156.39 55.0237 212.99 47.5713C272.196 39.775 343.245 47.8592 401.293 54.422C460.349 61.1009 515.97 70.7065 571.292 81.6832C623.658 92.071 649.611 76.096 692.74 66.1336C719.701 59.9061 742.03 61.0407 768.992 66.6193C803.363 73.7322 838.154 80.4841 873.723 86.4151C933.179 96.3259 1006.39 108.145 1071.29 104.956C1155 100.839 1220.95 72.0603 1305.47 68.5404" stroke="url(#paint33_linear_342_2679)" stroke-opacity="0.05" stroke-miterlimit="10"/>
<path d="M-132.5 65.1451C-68.9401 66.0821 -10.9623 83.0843 53.5463 76.3883C111.464 70.3713 156.84 51.8906 213.47 44.5069C272.676 36.7708 343.515 45.1645 401.473 51.7488C460.3 58.4319 515.711 67.9946 571.352 78.4168C623.279 88.1471 650.16 72.4557 693.319 62.9446C720.281 56.9878 742.809 58.0881 769.531 63.6753C803.743 70.8269 838.434 77.5272 873.993 83.355C933.209 93.0638 1007.14 104.758 1071.51 101.354C1154.81 96.9534 1221.56 69.4258 1305.46 65.3471" stroke="url(#paint34_linear_342_2679)" stroke-opacity="0.05" stroke-miterlimit="10"/>
<path d="M-132.48 61.8745C-68.7009 62.7857 -10.8129 79.9254 53.9353 73.1993C111.783 67.1909 157.429 48.9209 214.098 41.6145C273.304 34.0074 343.914 42.6116 401.762 49.2002C460.309 55.8619 515.601 65.3515 571.442 75.1978C622.999 84.2791 650.799 68.9359 694.068 59.8674C721.1 54.2072 743.797 55.3074 770.32 60.8903C804.341 68.0548 838.962 74.6778 874.462 80.3681C933.528 89.8448 1007.91 101.251 1071.84 97.6712C1154.72 93.0338 1222.25 66.7998 1305.51 62.2183" stroke="url(#paint35_linear_342_2679)" stroke-opacity="0.05" stroke-miterlimit="10"/>
<path d="M-132.461 58.6598C-68.4117 59.5623 -10.6336 76.8353 54.4441 70.1049C112.242 64.1309 158.167 46.0671 214.887 38.9069C274.073 31.433 344.323 40.2306 402.151 46.7977C460.379 53.4164 515.501 62.8072 571.571 72.0604C622.739 80.5056 651.518 65.5664 694.986 56.9879C722.108 51.6328 744.985 52.7717 771.338 58.3374C805.094 65.5383 839.732 71.9457 875.101 77.5315C934.117 86.7461 1008.71 97.7313 1072.27 93.9879C1154.61 89.1615 1222.97 64.2512 1305.5 59.2357" stroke="url(#paint36_linear_342_2679)" stroke-opacity="0.05" stroke-miterlimit="10"/>
<path d="M-132.431 55.5052C-68.0919 56.4077 -10.3337 73.8311 55.0635 67.1093C112.812 61.1826 159.046 43.3595 215.836 36.3454C275.002 29.0391 344.953 37.9743 402.671 44.5113C460.589 51.0612 515.561 60.323 571.761 68.9746C622.549 76.7966 652.367 62.3 696.095 54.2416C723.346 49.2174 746.394 50.4208 772.596 55.9607C806.149 63.1139 840.661 69.4013 875.95 74.7895C934.996 83.7161 1009.58 94.104 1072.8 90.2617C1154.61 85.2891 1223.75 61.7413 1305.56 56.3346" stroke="url(#paint37_linear_342_2679)" stroke-opacity="0.05" stroke-miterlimit="10"/>
<path d="M-132.41 52.4192C-67.7418 53.3261 -9.99371 70.8999 55.7731 64.2297C113.481 58.376 160.045 40.8108 216.855 33.9643C275.991 26.8385 345.572 35.8812 403.24 42.3623C460.729 48.8091 515.681 57.9248 571.941 65.9617C622.37 73.1692 653.286 59.1668 697.314 51.6542C724.715 46.9782 747.942 48.2718 774.035 53.8031C807.358 60.8879 841.715 67.0339 876.889 72.2022C936.035 80.7978 1010.39 90.4937 1073.34 86.5612C1154.59 81.4898 1224.47 59.3301 1305.54 53.5925" stroke="url(#paint38_linear_342_2679)" stroke-opacity="0.05" stroke-miterlimit="10"/>
<path d="M-132.391 49.3935C-67.3628 50.3219 -9.56474 68.0633 56.5815 61.4275C114.25 55.677 161.153 38.3911 218.023 31.7294C277.119 24.8099 346.321 33.917 403.859 40.3251C460.948 46.6859 515.84 55.5953 572.121 63.0134C622.2 69.6105 654.274 56.1368 698.631 49.2001C726.202 44.9023 749.609 46.2948 775.622 51.7788C808.725 58.7796 842.939 64.7615 878.007 69.6793C937.343 77.944 1011.28 86.8191 1074 82.8178C1154.65 77.6604 1225.25 56.9405 1305.57 50.9064" stroke="url(#paint39_linear_342_2679)" stroke-opacity="0.05" stroke-miterlimit="10"/>
<path d="M-132.371 46.4367C-66.9538 47.3908 -9.16575 65.3042 57.4698 58.7586C115.098 53.094 162.371 36.1004 219.3 29.6451C278.347 22.9534 347.119 32.0905 404.578 38.417C461.267 44.6617 516.11 53.3476 572.34 60.1382C622.079 66.1552 655.382 53.2316 700.089 46.8923C727.849 42.9598 751.436 44.5027 777.389 49.9008C810.26 56.7954 844.312 62.5944 879.245 67.2468C938.81 75.1333 1012.15 83.0929 1074.69 79.0444C1154.74 73.887 1226.01 54.5897 1305.57 48.3063" stroke="url(#paint40_linear_342_2679)" stroke-opacity="0.05" stroke-miterlimit="10"/>
<path d="M-132.351 43.5529C-66.5239 44.5414 -8.67591 62.6266 58.379 56.1713C116.037 50.64 163.68 33.9386 220.679 27.7068C279.665 21.26 347.958 30.3929 405.417 36.6248C461.687 42.7363 516.49 51.1729 572.66 57.3317C622.06 62.7513 656.661 50.4294 701.737 44.7176C729.697 41.1762 753.454 42.8695 779.387 48.2418C812.019 55.0154 845.901 60.6118 880.683 64.9733C940.479 72.4558 1013.08 79.4355 1075.48 75.3396C1154.9 70.1521 1226.81 52.3591 1305.61 45.8608" stroke="url(#paint41_linear_342_2679)" stroke-opacity="0.05" stroke-miterlimit="10"/>
<path d="M-132.331 40.755C-66.095 41.7736 -8.17705 60.0308 59.4671 53.6829C117.035 48.2762 165.077 31.9015 222.136 25.906C281.053 19.7128 348.877 28.8242 406.205 34.9314C462.066 40.8968 516.829 49.0541 572.879 54.5854C621.97 59.4334 657.939 47.7089 703.364 42.6546C731.524 39.5129 755.47 41.3653 781.414 46.6989C813.799 53.337 847.499 58.715 882.111 62.7685C942.296 69.8169 1013.99 75.705 1076.3 71.6177C1155.1 66.4603 1227.58 50.163 1305.63 43.4798" stroke="url(#paint42_linear_342_2679)" stroke-opacity="0.05" stroke-miterlimit="10"/>
<path d="M-132.311 38.0044C-65.5951 39.0831 -7.56739 57.5166 60.556 51.289C118.114 46.0327 166.576 29.9846 223.675 24.2384C282.541 18.3203 349.856 27.3802 407.105 33.3842C462.546 39.1992 517.269 47.047 573.169 51.9509C621.97 56.2487 659.357 45.156 705.122 40.7765C733.492 38.0474 757.618 40.0974 783.601 45.358C815.74 51.8473 849.253 56.9925 883.679 60.7227C944.233 67.307 1014.93 72.0647 1077.15 67.9732C1155.34 62.8373 1228.34 48.0957 1305.65 41.2579" stroke="url(#paint43_linear_342_2679)" stroke-opacity="0.05" stroke-miterlimit="10"/>
<path d="M-132.291 35.3439C-65.0963 36.4786 -6.96868 55.0882 61.7239 48.9982C119.232 43.8966 168.083 28.188 225.282 22.704C284.069 17.0653 350.864 26.0606 408.023 31.9315C463.065 37.5831 517.718 45.1 573.439 49.3764C621.99 53.1026 660.825 42.6803 706.939 38.9541C735.509 36.6462 759.804 38.8982 785.877 44.1115C817.766 50.4394 851.085 55.3362 885.306 58.7241C946.22 64.8099 1015.84 68.3857 1078.03 64.3113C1155.61 59.2356 1229.07 46.0498 1305.67 39.0745" stroke="url(#paint44_linear_342_2679)" stroke-opacity="0.05" stroke-miterlimit="10"/>
<path d="M-132.271 32.7653C-64.6074 33.9601 -6.33002 52.7459 62.8919 46.802C120.41 41.8638 169.67 26.5034 226.939 21.2901C285.646 15.9479 351.912 24.853 409.031 30.5863C463.684 36.0746 518.256 43.2305 573.798 46.8837C622.139 50.0598 662.452 40.3166 708.896 37.278C737.675 35.3913 762.141 37.8582 788.313 42.9942C819.954 49.1584 853.078 53.8023 887.084 56.8418C948.407 62.3989 1016.84 64.7541 1079.01 60.7098C1155.9 55.6985 1229.8 44.103 1305.69 37.0116" stroke="url(#paint45_linear_342_2679)" stroke-opacity="0.05" stroke-miterlimit="10"/>
<path d="M-132.251 30.2683C-64.0976 31.5275 -5.67043 50.4681 64.1206 44.7047C121.639 39.9384 171.309 24.9261 228.647 19.9964C287.274 14.968 353.001 23.7613 410.05 29.3485C464.333 34.6649 518.806 41.4383 574.108 44.4726C622.279 47.1158 664.06 38.0645 710.804 35.7136C739.763 34.2566 764.418 36.9471 790.691 42.0185C822.086 48.0074 855.009 52.3855 888.782 55.0625C950.494 60.0608 1017.72 61.174 1079.89 57.1598C1156.22 52.2345 1230.41 42.242 1305.64 35.0474" stroke="url(#paint46_linear_342_2679)" stroke-opacity="0.05" stroke-miterlimit="10"/>
<path d="M-132.23 27.8614C-63.5778 29.1852 -4.98087 48.3191 65.3694 42.7062C122.878 38.1118 172.987 23.4605 230.395 18.836C288.923 14.1084 354.1 22.8029 411.139 28.2354C465.063 33.3928 519.416 39.7493 574.488 42.1689C622.569 44.2835 665.778 35.9371 712.881 34.2781C742.05 33.2509 766.805 36.1778 793.327 41.1804C824.48 46.9909 857.203 51.0973 890.729 53.4035C1031.53 63.4131 1169.5 46.5269 1305.78 33.2037" stroke="url(#paint47_linear_342_2679)" stroke-opacity="0.05" stroke-miterlimit="10"/>
<path d="M-132.211 25.532C-63.049 26.9288 -4.28229 46.2303 66.6472 40.7936C124.156 36.384 174.694 22.098 232.173 17.7443C290.6 13.3175 355.228 21.9046 412.147 27.178C465.761 32.1592 519.955 38.1031 574.777 39.8953C622.849 41.4812 667.416 33.8784 714.868 32.8899C744.207 32.2882 769.171 35.4686 795.843 40.3982C826.64 46.1272 859.343 49.7803 892.546 51.8003C1029.76 60.151 1172.88 44.6487 1305.75 31.4157" stroke="url(#paint48_linear_342_2679)" stroke-opacity="0.05" stroke-miterlimit="10"/>
<path d="M-132.191 23.2972C-62.5202 24.7671 -3.57373 44.2362 67.9349 38.98C125.453 34.738 176.411 20.8345 233.96 16.7731C292.287 12.6601 356.356 21.1311 413.215 26.2283C466.54 31.0204 520.543 36.5431 575.116 37.7508C623.278 38.8167 669.103 31.9316 716.915 31.6436C746.423 31.4674 771.547 34.8971 798.429 39.7665C829.026 45.3064 861.51 48.6458 894.433 50.3048C957.154 53.4637 1020.75 50.7732 1082.96 46.9095C1157.59 42.2721 1232.33 37.1835 1305.77 29.7182" stroke="url(#paint49_linear_342_2679)" stroke-opacity="0.05" stroke-miterlimit="10"/>
<path d="M-132.171 21.1526C-62.5895 22.6697 -3.72298 42.1733 67.7157 37.3683C125.005 33.5002 176.062 20.1383 233.161 16.0854C290.879 11.9896 353.66 20.1168 410.02 25.0249C464.503 29.7525 519.695 35.0346 575.466 35.6964C624.976 36.2852 673.217 29.7783 722.617 30.539C752.435 30.9989 777.29 35.1936 804.621 39.8524C833.011 44.6918 862.988 47.4639 893.305 48.7747C957.834 51.564 1021.83 47.451 1085.59 43.5701C1159.19 39.0917 1233.44 35.6449 1305.82 28.158" stroke="url(#paint50_linear_342_2679)" stroke-opacity="0.05" stroke-miterlimit="10"/>
<path d="M-132.161 19.1025C-62.1004 20.6927 -2.99424 40.3596 68.9737 35.7394C126.273 32.0605 177.74 19.0509 234.928 15.2946C292.527 11.5297 354.808 19.5409 411.089 24.29C465.312 28.8715 520.294 33.7452 575.775 33.7452C625.575 33.7452 674.885 28.1022 724.694 29.5419C754.552 30.4015 779.616 34.8369 807.157 39.3969C835.357 44.0643 865.135 46.5441 895.193 47.5241C959.931 49.6343 1022.82 44.2061 1086.57 40.4326C1159.69 36.1047 1233.93 34.2609 1305.8 26.6796" stroke="url(#paint51_linear_342_2679)" stroke-opacity="0.05" stroke-miterlimit="10"/>
<path d="M-132.141 17.1512C-61.5507 18.8145 -2.32467 38.6404 70.2524 34.2007C127.571 30.6937 179.438 18.0495 236.706 14.5854C294.185 11.0999 355.977 19.0551 412.228 23.6495C466.151 28.0634 520.924 32.4988 576.115 31.8713C626.274 31.2997 676.553 26.5033 726.782 28.6135C756.679 29.8728 781.943 34.5445 809.664 39.0057C837.625 43.5055 867.262 45.6931 897.04 46.3421C961.948 47.7647 1023.8 41.0472 1087.53 37.3768C1160.19 33.1907 1234.32 32.9586 1305.77 25.2827" stroke="url(#paint52_linear_342_2679)" stroke-opacity="0.05" stroke-miterlimit="10"/>
<path d="M-132.121 15.2989C-61.0419 17.018 -1.56618 37.0116 71.5202 32.7567C128.849 29.4173 181.115 17.1169 238.474 13.9623C295.832 10.8077 357.125 18.6555 413.226 23.0909C467.02 27.3457 521.532 31.3642 576.424 30.1049C627.023 28.9445 678.16 25.0077 728.808 27.7798C758.766 29.4173 784.21 34.3426 812.19 38.7006C840.171 43.0586 869.429 44.9325 898.927 45.2591C963.835 45.9854 1024.87 38.0086 1088.53 34.4414C1160.77 30.3929 1234.84 31.7682 1305.81 23.9805" stroke="url(#paint53_linear_342_2679)" stroke-opacity="0.05" stroke-miterlimit="10"/>
<path d="M-132.111 13.5454C-60.5428 15.3505 -0.857401 35.4643 72.7483 31.4072C130.107 28.2311 182.752 16.3046 240.191 13.4165C297.39 10.5412 358.303 18.3375 414.304 22.6224C467.938 26.7225 522.151 30.3198 576.774 28.4417C627.871 26.6839 679.768 23.6023 730.865 27.0234C760.733 29.0262 786.476 34.2094 814.657 38.4685C842.317 42.646 871.576 44.2534 900.754 44.2663C965.662 44.3007 1025.92 35.1033 1089.49 31.6307C1161.38 27.7024 1235.28 30.6808 1305.81 22.7685" stroke="url(#paint54_linear_342_2679)" stroke-opacity="0.05" stroke-miterlimit="10"/>
<path d="M-132.102 11.8993C-60.0537 13.7646 -0.188551 34.046 73.9464 30.1436C131.335 27.1351 184.36 15.531 241.868 12.9523C299.007 10.3736 359.312 18.1097 415.322 22.2442C468.846 26.181 522.79 29.3743 577.093 26.8858C628.74 24.522 681.305 22.2957 732.872 26.3529C762.73 28.6952 788.693 34.1406 817.083 38.3009C844.614 42.3322 873.623 43.6517 902.532 43.3594C967.34 42.7104 1026.97 32.3355 1090.45 28.9445C1161.93 25.128 1235.64 29.7095 1305.84 21.6382" stroke="url(#paint55_linear_342_2679)" stroke-opacity="0.05" stroke-miterlimit="10"/>
<path d="M-132.081 10.3563C-59.5838 12.286 0.491011 32.7051 75.1152 28.9745C132.534 26.0993 185.958 14.869 243.497 12.5353C300.516 10.2231 360.331 17.9463 416.312 21.9261C469.736 25.7125 523.41 28.5061 577.403 25.4202C629.629 22.4375 682.844 21.0536 734.77 25.734C764.598 28.4201 790.781 34.1233 819.42 38.1977C846.781 42.0657 875.64 43.1316 904.3 42.5428C968.938 41.2234 1028.05 29.7224 1091.42 26.4044C1162.57 22.6782 1236.06 28.8499 1305.92 20.6195" stroke="url(#paint56_linear_342_2679)" stroke-opacity="0.05" stroke-miterlimit="10"/>
<path d="M-132.071 8.9209C-59.1746 10.9108 1.1199 31.4759 76.2234 27.8958C133.672 25.1538 187.396 14.2631 245.064 12.1873C301.983 10.1415 361.359 17.8518 417.25 21.6941C470.604 25.3687 524.009 27.7411 577.683 24.0708C630.518 20.4606 684.211 19.9019 736.587 25.1882C766.355 28.1967 792.788 34.1578 821.617 38.1376C848.838 41.8939 877.537 42.6718 905.897 41.8036C970.306 39.8309 1029.01 27.2683 1092.26 23.9934C1163.16 20.3359 1236.35 28.0892 1305.9 19.6612" stroke="url(#paint57_linear_342_2679)" stroke-opacity="0.05" stroke-miterlimit="10"/>
<path d="M-132.062 7.60144C-58.7055 9.63861 1.74879 30.3413 77.2717 26.903C134.77 24.2899 188.824 13.7216 246.552 11.8993C303.381 10.1071 362.298 17.8174 418.138 21.5393C471.443 25.0936 524.588 27.0706 577.962 22.8287C631.336 18.5867 685.559 18.836 738.345 24.7068C768.042 28.0118 794.735 34.162 823.724 38.1246C850.685 41.8165 879.425 42.2806 907.435 41.1331C971.584 38.5544 1029.96 24.9776 1093.08 21.7456C1163.67 18.1311 1236.65 27.4531 1305.9 18.7973" stroke="url(#paint58_linear_342_2679)" stroke-opacity="0.05" stroke-miterlimit="10"/>
<path d="M-132.002 6.37231C-58.2465 8.45247 2.3376 29.2927 78.3099 25.9876C135.788 23.4992 190.161 13.2488 247.959 11.6629C304.659 10.1071 363.196 17.8432 418.977 21.4577C472.251 24.896 525.146 26.4991 578.211 21.6984C632.275 16.8117 686.817 17.8303 739.982 24.2771C769.62 27.8615 796.542 34.2438 825.7 38.1505C852.552 41.7478 881.142 41.9541 908.862 40.5745C939.11 39.0659 968.598 35.6105 997.637 31.7768C1028.97 27.6466 1061.22 21.346 1093.86 19.6784C1164.21 16.0811 1236.94 26.9503 1305.91 18.0366" stroke="url(#paint59_linear_342_2679)" stroke-opacity="0.05" stroke-miterlimit="10"/>
<path d="M-132.002 5.29785C-57.887 7.41239 2.80695 28.3858 79.2186 25.1925C136.747 22.7857 191.41 12.8191 249.278 11.4695C305.887 10.1329 364.005 17.9163 419.736 21.4405C473.01 24.8014 525.696 26.0263 578.451 20.6841C633.103 15.1485 688.006 16.9063 741.56 23.9118C771.068 27.7798 798.219 34.3555 827.528 38.2064C854.27 41.7177 882.73 41.6919 910.181 40.0759C940.368 38.3052 969.686 34.5489 998.555 30.4703C1029.66 26.0779 1061.96 19.4506 1094.59 17.7702C1164.72 14.1643 1237.22 26.5592 1305.92 17.3404" stroke="url(#paint60_linear_342_2679)" stroke-opacity="0.05" stroke-miterlimit="10"/>
<path d="M-132.002 4.32227C-57.5475 6.47118 3.30623 27.5692 80.0474 24.4705C137.616 22.1411 192.538 12.4753 250.456 11.3191C306.986 10.1888 364.714 18.0624 420.405 21.4964C473.689 24.7756 526.185 25.6567 578.631 19.7773C633.912 13.6013 689.064 16.0511 742.998 23.5937C772.396 27.7025 799.747 34.4802 829.205 38.288C855.838 41.7263 884.127 41.4856 911.379 39.659C941.496 37.6391 970.665 33.5991 999.384 29.297C1030.28 24.6682 1062.61 17.7487 1095.25 16.0425C1165.15 12.3893 1237.48 26.2928 1305.95 16.743" stroke="url(#paint61_linear_342_2679)" stroke-opacity="0.05" stroke-miterlimit="10"/>
<path d="M-132.002 3.46692C-57.2379 5.61583 3.71564 26.86 80.7864 23.8343C138.425 21.5694 193.626 12.17 251.604 11.203C308.074 10.2575 365.443 18.2472 421.074 21.6124C474.378 24.8314 526.724 25.3859 578.85 19.0036C634.701 12.1657 689.993 15.2602 744.306 23.3014C773.604 27.6465 801.135 34.6004 830.713 38.3739C857.256 41.7563 885.446 41.3265 912.437 39.3065C942.515 37.0545 971.524 32.7566 1000.11 28.2482C1030.84 23.396 1063.19 16.2401 1095.87 14.4952C1165.63 10.7646 1237.78 26.1423 1305.95 16.2143" stroke="url(#paint62_linear_342_2679)" stroke-opacity="0.05" stroke-miterlimit="10"/>
<path d="M-132.002 2.73633C-56.9483 4.88524 4.06516 26.2627 81.4355 23.2843C139.084 21.0666 194.535 11.9165 252.563 11.0999C308.973 10.322 365.962 18.4535 421.593 21.7714C474.928 24.9518 527.174 25.2097 579 18.3332C635.43 10.842 690.752 14.521 745.464 23.0608C774.633 27.6165 802.324 34.7294 832.011 38.4771C858.474 41.8208 886.524 41.2277 913.326 39.0358C943.364 36.5732 972.243 32.0432 1000.71 27.3457C1031.3 22.2958 1063.62 14.9551 1096.39 13.1629C1166 9.31631 1238.06 26.1423 1305.96 15.776" stroke="url(#paint63_linear_342_2679)" stroke-opacity="0.05" stroke-miterlimit="10"/>
<path d="M-132.002 2.12598C-57.3178 4.27489 3.49596 25.6523 80.4169 22.8802C141.201 20.6926 199.957 10.8119 261.29 11.0139C313.726 11.1858 366.342 18.5996 418.138 21.7886C473.17 25.1753 525.845 25.0807 579.14 17.8303C638.236 9.8105 693.608 14.0267 750.567 23.5636C776.101 27.8356 800.426 33.6635 826.15 37.6648C853.371 41.8981 883.259 41.4855 911.269 39.1346C943.054 36.47 973.481 31.3985 1003.46 26.2411C1033.68 21.0235 1065.8 13.6786 1098.38 11.9594C1167.29 8.34494 1238.94 26.1895 1305.95 15.4278" stroke="url(#paint64_linear_342_2679)" stroke-opacity="0.05" stroke-miterlimit="10"/>
<path d="M-132.002 1.64465C-57.1081 3.76348 3.70567 25.2827 80.8363 22.5063C141.64 20.3144 200.666 10.6658 261.98 10.9881C314.375 11.2675 366.721 18.8876 418.488 22.0808C473.56 25.4761 526.225 25.1409 579.26 17.4177C638.955 8.71889 694.037 13.4293 751.466 23.4347C776.88 27.8614 801.275 33.7409 827.068 37.7464C854.23 41.9841 883.988 41.4856 911.838 39.0014C943.603 36.1691 973.91 30.8785 1003.8 25.5836C1033.98 20.2371 1066.09 12.8104 1098.75 11.0053C1167.53 7.23184 1239.26 26.4131 1305.96 15.1313" stroke="url(#paint65_linear_342_2679)" stroke-opacity="0.05" stroke-miterlimit="10"/>
<path d="M-132.002 1.3009C-56.9583 3.38535 3.80553 25.0335 81.1559 22.2142C141.97 19.9965 201.126 10.5541 262.519 10.9796C314.895 11.3406 366.991 19.2057 418.737 22.4247C473.839 25.863 526.584 25.3172 579.28 17.1298C639.554 7.76914 694.197 12.875 752.115 23.3015C777.469 27.8615 801.924 33.8011 827.737 37.854C854.879 42.1131 884.377 41.5759 912.208 38.9757C976.507 32.9587 1034.11 14.1213 1099.03 10.3221C1167.69 6.30358 1239.61 26.7785 1305.96 14.9293" stroke="url(#paint66_linear_342_2679)" stroke-opacity="0.05" stroke-miterlimit="10"/>
<path d="M-132.002 1.08228C-56.8385 3.12375 3.90537 24.9009 81.3456 22.0127C142.169 19.7392 201.525 10.4816 262.888 10.9759C315.274 11.4057 367.14 19.5458 418.867 22.8207C473.989 26.3106 526.914 25.6057 579.31 16.9757C640.113 6.95741 694.147 12.3598 752.614 23.2075C777.758 27.8621 802.274 34.0295 828.147 37.9233C855.628 42.0535 884.237 41.7183 912.368 39.002C976.776 32.7788 1034.06 13.9242 1099.21 9.84985C1167.78 5.55202 1240.01 27.2776 1305.92 14.801" stroke="url(#paint67_linear_342_2679)" stroke-opacity="0.05" stroke-miterlimit="10"/>
<path d="M-132.001 1C-56.7577 2.9813 3.87638 24.8874 81.3965 21.8918C142.22 19.5408 201.656 10.438 263.139 10.971C315.535 11.4265 367.201 19.9105 418.918 23.2628C474.04 26.8343 527.244 26.0134 579.331 16.9493C640.604 6.27774 693.878 11.8735 752.904 23.1338C806.828 33.4143 851.255 45.1172 912.319 39.0917C976.897 32.718 1033.92 14.0224 1099.29 9.62145C1167.78 5.00988 1240.39 27.9087 1306 14.7789" stroke="url(#paint68_linear_342_2679)" stroke-opacity="0.05" stroke-miterlimit="10"/>
<defs>
<linearGradient id="paint0_linear_342_2679" x1="1.03655e+06" y1="330.67" x2="1.03655e+06" y2="256.45" gradientUnits="userSpaceOnUse">
<stop stop-color="#B06223"/>
<stop offset="1" stop-color="#D78745"/>
</linearGradient>
<linearGradient id="paint1_linear_342_2679" x1="1.03652e+06" y1="494.067" x2="1.03652e+06" y2="293.93" gradientUnits="userSpaceOnUse">
<stop stop-color="#B06223"/>
<stop offset="1" stop-color="#D78745"/>
</linearGradient>
<linearGradient id="paint2_linear_342_2679" x1="1.03655e+06" y1="718.123" x2="1.03655e+06" y2="348.518" gradientUnits="userSpaceOnUse">
<stop stop-color="#B06223"/>
<stop offset="1" stop-color="#D78745"/>
</linearGradient>
<linearGradient id="paint3_linear_342_2679" x1="1.03655e+06" y1="1052.5" x2="1.03655e+06" y2="433.003" gradientUnits="userSpaceOnUse">
<stop stop-color="#B06223"/>
<stop offset="1" stop-color="#D78745"/>
</linearGradient>
<linearGradient id="paint4_linear_342_2679" x1="1.03655e+06" y1="1607.78" x2="1.03655e+06" y2="576.207" gradientUnits="userSpaceOnUse">
<stop stop-color="#B06223"/>
<stop offset="1" stop-color="#D78745"/>
</linearGradient>
<linearGradient id="paint5_linear_342_2679" x1="1.03655e+06" y1="2218.49" x2="1.03655e+06" y2="734.509" gradientUnits="userSpaceOnUse">
<stop stop-color="#B06223"/>
<stop offset="1" stop-color="#D78745"/>
</linearGradient>
<linearGradient id="paint6_linear_342_2679" x1="1.03655e+06" y1="2961.78" x2="1.03655e+06" y2="928.047" gradientUnits="userSpaceOnUse">
<stop stop-color="#B06223"/>
<stop offset="1" stop-color="#D78745"/>
</linearGradient>
<linearGradient id="paint7_linear_342_2679" x1="1.03654e+06" y1="3743.31" x2="1.03654e+06" y2="1131.89" gradientUnits="userSpaceOnUse">
<stop stop-color="#B06223"/>
<stop offset="1" stop-color="#D78745"/>
</linearGradient>
<linearGradient id="paint8_linear_342_2679" x1="1.03656e+06" y1="4527.19" x2="1.03656e+06" y2="1336.47" gradientUnits="userSpaceOnUse">
<stop stop-color="#B06223"/>
<stop offset="1" stop-color="#D78745"/>
</linearGradient>
<linearGradient id="paint9_linear_342_2679" x1="1.03653e+06" y1="5272.32" x2="1.03653e+06" y2="1530.82" gradientUnits="userSpaceOnUse">
<stop stop-color="#B06223"/>
<stop offset="1" stop-color="#D78745"/>
</linearGradient>
<linearGradient id="paint10_linear_342_2679" x1="1.03655e+06" y1="6011.48" x2="1.03655e+06" y2="1723.41" gradientUnits="userSpaceOnUse">
<stop stop-color="#B06223"/>
<stop offset="1" stop-color="#D78745"/>
</linearGradient>
<linearGradient id="paint11_linear_342_2679" x1="1.03655e+06" y1="6579.12" x2="1.03655e+06" y2="1870.63" gradientUnits="userSpaceOnUse">
<stop stop-color="#B06223"/>
<stop offset="1" stop-color="#D78745"/>
</linearGradient>
<linearGradient id="paint12_linear_342_2679" x1="1.03655e+06" y1="6999.57" x2="1.03655e+06" y2="1978.73" gradientUnits="userSpaceOnUse">
<stop stop-color="#B06223"/>
<stop offset="1" stop-color="#D78745"/>
</linearGradient>
<linearGradient id="paint13_linear_342_2679" x1="1.03658e+06" y1="7223.82" x2="1.03658e+06" y2="2034.64" gradientUnits="userSpaceOnUse">
<stop stop-color="#B06223"/>
<stop offset="1" stop-color="#D78745"/>
</linearGradient>
<linearGradient id="paint14_linear_342_2679" x1="1.03655e+06" y1="7323.13" x2="1.03655e+06" y2="2057.08" gradientUnits="userSpaceOnUse">
<stop stop-color="#B06223"/>
<stop offset="1" stop-color="#D78745"/>
</linearGradient>
<linearGradient id="paint15_linear_342_2679" x1="1.03653e+06" y1="7423.8" x2="1.03653e+06" y2="2079.87" gradientUnits="userSpaceOnUse">
<stop stop-color="#B06223"/>
<stop offset="1" stop-color="#D78745"/>
</linearGradient>
<linearGradient id="paint16_linear_342_2679" x1="1.03654e+06" y1="7480.57" x2="1.03654e+06" y2="2091.27" gradientUnits="userSpaceOnUse">
<stop stop-color="#B06223"/>
<stop offset="1" stop-color="#D78745"/>
</linearGradient>
<linearGradient id="paint17_linear_342_2679" x1="1.03657e+06" y1="7496.6" x2="1.03657e+06" y2="2092.05" gradientUnits="userSpaceOnUse">
<stop stop-color="#B06223"/>
<stop offset="1" stop-color="#D78745"/>
</linearGradient>
<linearGradient id="paint18_linear_342_2679" x1="1.03655e+06" y1="7476.93" x2="1.03655e+06" y2="2083.56" gradientUnits="userSpaceOnUse">
<stop stop-color="#B06223"/>
<stop offset="1" stop-color="#D78745"/>
</linearGradient>
<linearGradient id="paint19_linear_342_2679" x1="1.03655e+06" y1="7424.93" x2="1.03655e+06" y2="2066.68" gradientUnits="userSpaceOnUse">
<stop stop-color="#B06223"/>
<stop offset="1" stop-color="#D78745"/>
</linearGradient>
<linearGradient id="paint20_linear_342_2679" x1="1.03656e+06" y1="7306.13" x2="1.03656e+06" y2="2032.37" gradientUnits="userSpaceOnUse">
<stop stop-color="#B06223"/>
<stop offset="1" stop-color="#D78745"/>
</linearGradient>
<linearGradient id="paint21_linear_342_2679" x1="1.03657e+06" y1="7226.52" x2="1.03657e+06" y2="2008.44" gradientUnits="userSpaceOnUse">
<stop stop-color="#B06223"/>
<stop offset="1" stop-color="#D78745"/>
</linearGradient>
<linearGradient id="paint22_linear_342_2679" x1="1.03652e+06" y1="7130.4" x2="1.03652e+06" y2="1980.24" gradientUnits="userSpaceOnUse">
<stop stop-color="#B06223"/>
<stop offset="1" stop-color="#D78745"/>
</linearGradient>
<linearGradient id="paint23_linear_342_2679" x1="1.03655e+06" y1="7028.38" x2="1.03655e+06" y2="1950.58" gradientUnits="userSpaceOnUse">
<stop stop-color="#B06223"/>
<stop offset="1" stop-color="#D78745"/>
</linearGradient>
<linearGradient id="paint24_linear_342_2679" x1="1.03658e+06" y1="6920.52" x2="1.03658e+06" y2="1919.46" gradientUnits="userSpaceOnUse">
<stop stop-color="#B06223"/>
<stop offset="1" stop-color="#D78745"/>
</linearGradient>
<linearGradient id="paint25_linear_342_2679" x1="1.03654e+06" y1="6811.23" x2="1.03654e+06" y2="1888.01" gradientUnits="userSpaceOnUse">
<stop stop-color="#B06223"/>
<stop offset="1" stop-color="#D78745"/>
</linearGradient>
<linearGradient id="paint26_linear_342_2679" x1="1.03655e+06" y1="6668.95" x2="1.03655e+06" y2="1847.94" gradientUnits="userSpaceOnUse">
<stop stop-color="#B06223"/>
<stop offset="1" stop-color="#D78745"/>
</linearGradient>
<linearGradient id="paint27_linear_342_2679" x1="1.03652e+06" y1="6567.11" x2="1.03652e+06" y2="1818.56" gradientUnits="userSpaceOnUse">
<stop stop-color="#B06223"/>
<stop offset="1" stop-color="#D78745"/>
</linearGradient>
<linearGradient id="paint28_linear_342_2679" x1="1.03653e+06" y1="6476.35" x2="1.03653e+06" y2="1792.12" gradientUnits="userSpaceOnUse">
<stop stop-color="#B06223"/>
<stop offset="1" stop-color="#D78745"/>
</linearGradient>
<linearGradient id="paint29_linear_342_2679" x1="1.03652e+06" y1="6405.02" x2="1.03652e+06" y2="1770.84" gradientUnits="userSpaceOnUse">
<stop stop-color="#B06223"/>
<stop offset="1" stop-color="#D78745"/>
</linearGradient>
<linearGradient id="paint30_linear_342_2679" x1="1.03658e+06" y1="6343.49" x2="1.03658e+06" y2="1752.1" gradientUnits="userSpaceOnUse">
<stop stop-color="#B06223"/>
<stop offset="1" stop-color="#D78745"/>
</linearGradient>
<linearGradient id="paint31_linear_342_2679" x1="1.03655e+06" y1="6312.97" x2="1.03655e+06" y2="1741.55" gradientUnits="userSpaceOnUse">
<stop stop-color="#B06223"/>
<stop offset="1" stop-color="#D78745"/>
</linearGradient>
<linearGradient id="paint32_linear_342_2679" x1="1.03655e+06" y1="6298.33" x2="1.03655e+06" y2="1735.17" gradientUnits="userSpaceOnUse">
<stop stop-color="#B06223"/>
<stop offset="1" stop-color="#D78745"/>
</linearGradient>
<linearGradient id="paint33_linear_342_2679" x1="1.03657e+06" y1="6258.03" x2="1.03657e+06" y2="1722" gradientUnits="userSpaceOnUse">
<stop stop-color="#B06223"/>
<stop offset="1" stop-color="#D78745"/>
</linearGradient>
<linearGradient id="paint34_linear_342_2679" x1="1.03655e+06" y1="6197.46" x2="1.03655e+06" y2="1703.49" gradientUnits="userSpaceOnUse">
<stop stop-color="#B06223"/>
<stop offset="1" stop-color="#D78745"/>
</linearGradient>
<linearGradient id="paint35_linear_342_2679" x1="1.03657e+06" y1="6109.11" x2="1.03657e+06" y2="1677.61" gradientUnits="userSpaceOnUse">
<stop stop-color="#B06223"/>
<stop offset="1" stop-color="#D78745"/>
</linearGradient>
<linearGradient id="paint36_linear_342_2679" x1="1.03655e+06" y1="6003.29" x2="1.03655e+06" y2="1647.15" gradientUnits="userSpaceOnUse">
<stop stop-color="#B06223"/>
<stop offset="1" stop-color="#D78745"/>
</linearGradient>
<linearGradient id="paint37_linear_342_2679" x1="1.03657e+06" y1="5876.77" x2="1.03657e+06" y2="1611.21" gradientUnits="userSpaceOnUse">
<stop stop-color="#B06223"/>
<stop offset="1" stop-color="#D78745"/>
</linearGradient>
<linearGradient id="paint38_linear_342_2679" x1="1.03654e+06" y1="5735.72" x2="1.03654e+06" y2="1571.48" gradientUnits="userSpaceOnUse">
<stop stop-color="#B06223"/>
<stop offset="1" stop-color="#D78745"/>
</linearGradient>
<linearGradient id="paint39_linear_342_2679" x1="1.03655e+06" y1="5576.01" x2="1.03655e+06" y2="1526.83" gradientUnits="userSpaceOnUse">
<stop stop-color="#B06223"/>
<stop offset="1" stop-color="#D78745"/>
</linearGradient>
<linearGradient id="paint40_linear_342_2679" x1="1.03654e+06" y1="5398.75" x2="1.03654e+06" y2="1477.55" gradientUnits="userSpaceOnUse">
<stop stop-color="#B06223"/>
<stop offset="1" stop-color="#D78745"/>
</linearGradient>
<linearGradient id="paint41_linear_342_2679" x1="1.03655e+06" y1="5215.92" x2="1.03655e+06" y2="1426.87" gradientUnits="userSpaceOnUse">
<stop stop-color="#B06223"/>
<stop offset="1" stop-color="#D78745"/>
</linearGradient>
<linearGradient id="paint42_linear_342_2679" x1="1.03655e+06" y1="5018.32" x2="1.03655e+06" y2="1372.3" gradientUnits="userSpaceOnUse">
<stop stop-color="#B06223"/>
<stop offset="1" stop-color="#D78745"/>
</linearGradient>
<linearGradient id="paint43_linear_342_2679" x1="1.03655e+06" y1="4819.21" x2="1.03655e+06" y2="1317.43" gradientUnits="userSpaceOnUse">
<stop stop-color="#B06223"/>
<stop offset="1" stop-color="#D78745"/>
</linearGradient>
<linearGradient id="paint44_linear_342_2679" x1="1.03655e+06" y1="4609.68" x2="1.03655e+06" y2="1259.84" gradientUnits="userSpaceOnUse">
<stop stop-color="#B06223"/>
<stop offset="1" stop-color="#D78745"/>
</linearGradient>
<linearGradient id="paint45_linear_342_2679" x1="1.03655e+06" y1="4401.1" x2="1.03655e+06" y2="1202.6" gradientUnits="userSpaceOnUse">
<stop stop-color="#B06223"/>
<stop offset="1" stop-color="#D78745"/>
</linearGradient>
<linearGradient id="paint46_linear_342_2679" x1="1.0365e+06" y1="4196.91" x2="1.0365e+06" y2="1146.63" gradientUnits="userSpaceOnUse">
<stop stop-color="#B06223"/>
<stop offset="1" stop-color="#D78745"/>
</linearGradient>
<linearGradient id="paint47_linear_342_2679" x1="1.03659e+06" y1="3978.22" x2="1.03659e+06" y2="1086.84" gradientUnits="userSpaceOnUse">
<stop stop-color="#B06223"/>
<stop offset="1" stop-color="#D78745"/>
</linearGradient>
<linearGradient id="paint48_linear_342_2679" x1="1.03655e+06" y1="3843.39" x2="1.03655e+06" y2="1049.74" gradientUnits="userSpaceOnUse">
<stop stop-color="#B06223"/>
<stop offset="1" stop-color="#D78745"/>
</linearGradient>
<linearGradient id="paint49_linear_342_2679" x1="1.03655e+06" y1="3677.24" x2="1.03655e+06" y2="1004.27" gradientUnits="userSpaceOnUse">
<stop stop-color="#B06223"/>
<stop offset="1" stop-color="#D78745"/>
</linearGradient>
<linearGradient id="paint50_linear_342_2679" x1="1.03657e+06" y1="3545.17" x2="1.03657e+06" y2="968.091" gradientUnits="userSpaceOnUse">
<stop stop-color="#B06223"/>
<stop offset="1" stop-color="#D78745"/>
</linearGradient>
<linearGradient id="paint51_linear_342_2679" x1="1.03655e+06" y1="3438.33" x2="1.03655e+06" y2="938.772" gradientUnits="userSpaceOnUse">
<stop stop-color="#B06223"/>
<stop offset="1" stop-color="#D78745"/>
</linearGradient>
<linearGradient id="paint52_linear_342_2679" x1="1.03652e+06" y1="3349.5" x2="1.03652e+06" y2="914.357" gradientUnits="userSpaceOnUse">
<stop stop-color="#B06223"/>
<stop offset="1" stop-color="#D78745"/>
</linearGradient>
<linearGradient id="paint53_linear_342_2679" x1="1.03653e+06" y1="3273.95" x2="1.03653e+06" y2="893.598" gradientUnits="userSpaceOnUse">
<stop stop-color="#B06223"/>
<stop offset="1" stop-color="#D78745"/>
</linearGradient>
<linearGradient id="paint54_linear_342_2679" x1="1.03652e+06" y1="3212.49" x2="1.03652e+06" y2="876.683" gradientUnits="userSpaceOnUse">
<stop stop-color="#B06223"/>
<stop offset="1" stop-color="#D78745"/>
</linearGradient>
<linearGradient id="paint55_linear_342_2679" x1="1.03654e+06" y1="3214.41" x2="1.03654e+06" y2="876.549" gradientUnits="userSpaceOnUse">
<stop stop-color="#B06223"/>
<stop offset="1" stop-color="#D78745"/>
</linearGradient>
<linearGradient id="paint56_linear_342_2679" x1="1.03658e+06" y1="3298.13" x2="1.03658e+06" y2="898.025" gradientUnits="userSpaceOnUse">
<stop stop-color="#B06223"/>
<stop offset="1" stop-color="#D78745"/>
</linearGradient>
<linearGradient id="paint57_linear_342_2679" x1="1.03656e+06" y1="3384.87" x2="1.03656e+06" y2="920.396" gradientUnits="userSpaceOnUse">
<stop stop-color="#B06223"/>
<stop offset="1" stop-color="#D78745"/>
</linearGradient>
<linearGradient id="paint58_linear_342_2679" x1="1.03655e+06" y1="3473.14" x2="1.03655e+06" y2="943.265" gradientUnits="userSpaceOnUse">
<stop stop-color="#B06223"/>
<stop offset="1" stop-color="#D78745"/>
</linearGradient>
<linearGradient id="paint59_linear_342_2679" x1="1.03652e+06" y1="3563.94" x2="1.03652e+06" y2="966.884" gradientUnits="userSpaceOnUse">
<stop stop-color="#B06223"/>
<stop offset="1" stop-color="#D78745"/>
</linearGradient>
<linearGradient id="paint60_linear_342_2679" x1="1.03652e+06" y1="3648.1" x2="1.03652e+06" y2="988.822" gradientUnits="userSpaceOnUse">
<stop stop-color="#B06223"/>
<stop offset="1" stop-color="#D78745"/>
</linearGradient>
<linearGradient id="paint61_linear_342_2679" x1="1.03654e+06" y1="3730.39" x2="1.03654e+06" y2="1010.33" gradientUnits="userSpaceOnUse">
<stop stop-color="#B06223"/>
<stop offset="1" stop-color="#D78745"/>
</linearGradient>
<linearGradient id="paint62_linear_342_2679" x1="1.03654e+06" y1="3806.29" x2="1.03654e+06" y2="1030.2" gradientUnits="userSpaceOnUse">
<stop stop-color="#B06223"/>
<stop offset="1" stop-color="#D78745"/>
</linearGradient>
<linearGradient id="paint63_linear_342_2679" x1="1.03655e+06" y1="3875.96" x2="1.03655e+06" y2="1048.47" gradientUnits="userSpaceOnUse">
<stop stop-color="#B06223"/>
<stop offset="1" stop-color="#D78745"/>
</linearGradient>
<linearGradient id="paint64_linear_342_2679" x1="1.03654e+06" y1="3942.74" x2="1.03654e+06" y2="1066.06" gradientUnits="userSpaceOnUse">
<stop stop-color="#B06223"/>
<stop offset="1" stop-color="#D78745"/>
</linearGradient>
<linearGradient id="paint65_linear_342_2679" x1="1.03655e+06" y1="3993.01" x2="1.03655e+06" y2="1079.28" gradientUnits="userSpaceOnUse">
<stop stop-color="#B06223"/>
<stop offset="1" stop-color="#D78745"/>
</linearGradient>
<linearGradient id="paint66_linear_342_2679" x1="1.03655e+06" y1="4036.67" x2="1.03655e+06" y2="1090.82" gradientUnits="userSpaceOnUse">
<stop stop-color="#B06223"/>
<stop offset="1" stop-color="#D78745"/>
</linearGradient>
<linearGradient id="paint67_linear_342_2679" x1="1.03652e+06" y1="4063.35" x2="1.03652e+06" y2="1097.86" gradientUnits="userSpaceOnUse">
<stop stop-color="#B06223"/>
<stop offset="1" stop-color="#D78745"/>
</linearGradient>
<linearGradient id="paint68_linear_342_2679" x1="1.03658e+06" y1="4041.12" x2="1.03658e+06" y2="1091.8" gradientUnits="userSpaceOnUse">
<stop stop-color="#B06223"/>
<stop offset="1" stop-color="#D78745"/>
</linearGradient>
</defs>
</svg>
