<svg width="13" height="13" viewBox="0 0 13 13" fill="none" xmlns="http://www.w3.org/2000/svg">
<g clip-path="url(#clip0_2021_2800)">
<path d="M12.7325 0.252481C12.5535 0.0723877 12.3372 0 12.0852 0H3.321C2.80067 0 2.341 0.370296 2.341 0.890625V1.69013C2.341 2.21045 2.80067 2.696 3.321 2.696H8.47455L0.285297 10.8541C0.107765 11.0318 0.00990043 11.2531 0.00976562 11.5059C0.00976562 11.7586 0.107765 11.9876 0.285297 12.1653L0.850649 12.7265C1.02805 12.9042 1.26503 13 1.51778 13C1.77053 13 1.98176 12.9013 2.15929 12.7237L10.2942 4.56245V9.65534C10.2942 10.1758 10.7688 10.6492 11.289 10.6492H12.0888C12.6089 10.6492 12.9904 10.1758 12.9904 9.65534V0.893726C12.9902 0.641919 12.912 0.430956 12.7325 0.252481Z" fill="black"/>
</g>
<defs>
<clipPath id="clip0_2021_2800">
<rect width="13" height="13" fill="white"/>
</clipPath>
</defs>
</svg>
