<svg width="36" height="36" viewBox="0 0 36 36" fill="none" xmlns="http://www.w3.org/2000/svg">
<rect width="36" height="36" rx="4" fill="#493121"/>
<g clip-path="url(#clip0_69_862)">
<path d="M13.8001 18L17.4001 21L22.2001 15M18.0001 26.4C16.897 26.4 15.8047 26.1827 14.7856 25.7606C13.7664 25.3385 12.8404 24.7197 12.0604 23.9397C11.2804 23.1597 10.6616 22.2337 10.2395 21.2145C9.81737 20.1954 9.6001 19.1031 9.6001 18C9.6001 16.8969 9.81737 15.8046 10.2395 14.7855C10.6616 13.7663 11.2804 12.8403 12.0604 12.0603C12.8404 11.2803 13.7664 10.6616 14.7856 10.2394C15.8047 9.81728 16.897 9.60001 18.0001 9.60001C20.2279 9.60001 22.3645 10.485 23.9398 12.0603C25.5151 13.6356 26.4001 15.7722 26.4001 18C26.4001 20.2278 25.5151 22.3644 23.9398 23.9397C22.3645 25.515 20.2279 26.4 18.0001 26.4Z" stroke="#FFAB67" stroke-width="1.5"/>
</g>
<defs>
<clipPath id="clip0_69_862">
<rect width="18" height="18" fill="white" transform="translate(9 9)"/>
</clipPath>
</defs>
</svg>
