<svg width="17" height="18" viewBox="0 0 17 18" fill="none" xmlns="http://www.w3.org/2000/svg">
<path fill-rule="evenodd" clip-rule="evenodd" d="M14.7956 12.5839C13.027 12.2769 11.2631 10.9904 10.2003 9.02544C8.94389 6.70244 9.03399 4.10901 10.2472 2.46222C10.3715 2.29343 10.5076 2.13458 10.6553 1.987C10.9402 1.70234 10.8579 1.17119 10.4573 1.10636C10.1961 1.06409 9.93063 1.03407 9.66163 1.01693C9.4854 1.0057 9.30765 1 9.12854 1C4.63927 1 1 4.58172 1 9C1 13.4183 4.63927 17 9.12854 17C11.6831 17 13.9625 15.8402 15.4527 14.0264C15.622 13.8203 15.7811 13.6058 15.9293 13.3836C16.1404 13.0669 15.8476 12.6647 15.4629 12.6526C15.2413 12.6457 15.0184 12.6225 14.7956 12.5839Z" stroke="#ECD3BE" stroke-width="1.5"/>
</svg>
