<svg width="39" height="41" viewBox="0 0 39 41" fill="none" xmlns="http://www.w3.org/2000/svg">
<rect width="38.8" height="40.39" rx="4" fill="#493121"/>
<g filter="url(#filter0_i_69_823)">
<path d="M11.8872 23.6116C11.8872 19.1679 15.2341 15.5652 19.3622 15.5652H19.7282C23.8557 15.5652 27.2032 19.1679 27.2032 23.6116V23.8117C27.2032 25.4447 26.6005 27.0108 25.5278 28.1655C24.4551 29.3202 23.0002 29.969 21.4832 29.969H17.6072C16.0902 29.969 14.6353 29.3202 13.5626 28.1655C12.4898 27.0108 11.8872 25.4447 11.8872 23.8117V23.6116Z" fill="url(#paint0_radial_69_823)"/>
<path d="M11.8872 23.6116C11.8872 19.1679 15.2341 15.5652 19.3622 15.5652H19.7282C23.8557 15.5652 27.2032 19.1679 27.2032 23.6116V23.8117C27.2032 25.4447 26.6005 27.0108 25.5278 28.1655C24.4551 29.3202 23.0002 29.969 21.4832 29.969H17.6072C16.0902 29.969 14.6353 29.3202 13.5626 28.1655C12.4898 27.0108 11.8872 25.4447 11.8872 23.8117V23.6116Z" fill="url(#paint1_radial_69_823)"/>
</g>
<path d="M11.8872 23.6116C11.8872 19.1679 15.2341 15.5652 19.3622 15.5652H19.7282C23.8557 15.5652 27.2032 19.1679 27.2032 23.6116V23.8117C27.2032 25.4447 26.6005 27.0108 25.5278 28.1655C24.4551 29.3202 23.0002 29.969 21.4832 29.969H17.6072C16.0902 29.969 14.6353 29.3202 13.5626 28.1655C12.4898 27.0108 11.8872 25.4447 11.8872 23.8117V23.6116Z" fill="url(#paint2_radial_69_823)"/>
<path d="M11.8872 23.6116C11.8872 19.1679 15.2341 15.5652 19.3622 15.5652H19.7282C23.8557 15.5652 27.2032 19.1679 27.2032 23.6116V23.8117C27.2032 25.4447 26.6005 27.0108 25.5278 28.1655C24.4551 29.3202 23.0002 29.969 21.4832 29.969H17.6072C16.0902 29.969 14.6353 29.3202 13.5626 28.1655C12.4898 27.0108 11.8872 25.4447 11.8872 23.8117V23.6116Z" fill="url(#paint3_radial_69_823)"/>
<g filter="url(#filter1_ii_69_823)">
<path d="M16.9045 12.285C17.21 12.8455 17.6553 13.5648 18.2273 14.1546H20.863C21.435 13.5648 21.8796 12.8462 22.1858 12.285C22.2224 12.2162 22.2456 12.1401 22.2538 12.0613C22.262 11.9825 22.2552 11.9027 22.2337 11.8269C22.2122 11.751 22.1765 11.6807 22.1288 11.6203C22.0811 11.5599 22.0224 11.5106 21.9563 11.4755C21.7483 11.3608 21.5039 11.4153 21.3018 11.542C20.8455 11.8281 20.5822 11.4909 20.1799 10.8283C19.9777 10.4952 19.669 10.4777 19.5448 10.4756C19.4213 10.4777 19.1126 10.4952 18.9104 10.8283C18.5074 11.4909 18.2448 11.8281 17.7885 11.542C17.5864 11.4153 17.342 11.3608 17.1333 11.4755C17.0673 11.5106 17.0087 11.56 16.9611 11.6204C16.9134 11.6809 16.8778 11.7512 16.8564 11.827C16.8349 11.9029 16.8281 11.9826 16.8364 12.0614C16.8447 12.1402 16.8679 12.2163 16.9045 12.285Z" fill="url(#paint4_linear_69_823)"/>
</g>
<g filter="url(#filter2_f_69_823)">
<path d="M19.92 18.9762C19.92 18.8277 19.8652 18.6853 19.7677 18.5804C19.6701 18.4754 19.5379 18.4164 19.4 18.4164C19.2621 18.4164 19.1298 18.4754 19.0323 18.5804C18.9347 18.6853 18.88 18.8277 18.88 18.9762V19.5044C18.88 19.6297 18.802 19.7381 18.6934 19.7829C18.5059 19.8596 18.3291 19.9639 18.1682 20.0929C17.9312 20.2797 17.7392 20.525 17.6084 20.8082C17.4775 21.0913 17.4116 21.4041 17.4162 21.7203C17.4162 22.462 17.7269 22.9994 18.1487 23.3436C18.5504 23.6725 19.036 23.8138 19.4227 23.8516C19.58 23.867 19.8147 23.9125 20.0084 24.044C20.1767 24.158 20.3438 24.3533 20.3789 24.7717C20.4127 25.1719 20.2619 25.4098 20.0649 25.5714C19.8374 25.7582 19.5729 25.8177 19.5059 25.8177C19.3493 25.8177 19.0808 25.7953 18.8533 25.6624C18.6622 25.5504 18.4568 25.3398 18.4139 24.8241C18.4016 24.6763 18.3352 24.5397 18.2293 24.4445C18.1234 24.3493 17.9868 24.3033 17.8494 24.3165C17.712 24.3298 17.5851 24.4013 17.4967 24.5152C17.4082 24.6292 17.3655 24.7763 17.3778 24.9242C17.4519 25.8191 17.8653 26.3586 18.3574 26.6468C18.4659 26.7098 18.5758 26.7595 18.683 26.7987C18.739 26.8175 18.7882 26.8548 18.8235 26.9052C18.8588 26.9557 18.8786 27.0168 18.88 27.0799V27.5578C18.88 27.7063 18.9347 27.8487 19.0323 27.9536C19.1298 28.0586 19.2621 28.1176 19.4 28.1176C19.5379 28.1176 19.6701 28.0586 19.7677 27.9536C19.8652 27.8487 19.92 27.7063 19.92 27.5578V27.0848C19.92 26.9589 19.9993 26.849 20.1098 26.805C20.3048 26.728 20.5089 26.6147 20.6948 26.4621C21.127 26.1074 21.4865 25.5175 21.415 24.6709C21.3487 23.8866 20.9834 23.4143 20.557 23.1246C20.2359 22.9138 19.8749 22.7832 19.5007 22.7426C18.9099 22.7097 18.4562 22.3585 18.4562 21.7203C18.4562 21.3691 18.5862 21.1116 18.7773 20.9577C19.1731 20.5966 19.8459 20.6456 20.1637 21.099C20.3041 21.2998 20.3672 21.5209 20.3815 21.7203C20.4036 22.0282 20.6512 22.2738 20.9379 22.25C21.2239 22.2269 21.4377 21.9855 21.4156 21.677C21.3843 21.2339 21.2372 20.8093 20.9912 20.4525C20.7936 20.1698 20.4198 19.8997 20.1137 19.764C20.0584 19.7417 20.0106 19.7023 19.9761 19.6507C19.9416 19.5992 19.9221 19.5378 19.92 19.4743V18.9762Z" fill="url(#paint5_linear_69_823)"/>
</g>
<g filter="url(#filter3_ii_69_823)">
<path d="M20.0498 18.9048C20.0498 18.7563 19.995 18.614 19.8975 18.509C19.8 18.404 19.6677 18.345 19.5298 18.345C19.3919 18.345 19.2596 18.404 19.1621 18.509C19.0646 18.614 19.0098 18.7563 19.0098 18.9048V19.433C19.0098 19.559 18.9318 19.6667 18.8233 19.7115C18.6358 19.7883 18.459 19.8926 18.2981 20.0215C18.0612 20.2085 17.8694 20.4538 17.7387 20.7369C17.6079 21.0201 17.5421 21.3328 17.5467 21.649C17.5467 22.3906 17.8567 22.928 18.2786 23.2722C18.6803 23.6011 19.1652 23.7431 19.5526 23.7809C19.7099 23.7963 19.9445 23.8411 20.1389 23.9726C20.3066 24.0867 20.4736 24.2819 20.5094 24.7003C20.5432 25.1012 20.3917 25.3391 20.1941 25.5007C19.9666 25.6876 19.7027 25.7463 19.6351 25.7463C19.4791 25.7463 19.2107 25.7239 18.9832 25.5917C18.7921 25.4797 18.5867 25.2684 18.5438 24.7535C18.5377 24.6802 18.5183 24.609 18.4867 24.5438C18.455 24.4787 18.4118 24.4209 18.3594 24.3737C18.307 24.3265 18.2465 24.2909 18.1813 24.2689C18.1162 24.2469 18.0476 24.239 17.9796 24.2455C17.9115 24.252 17.8454 24.2729 17.7848 24.307C17.7243 24.341 17.6706 24.3876 17.6268 24.444C17.5829 24.5004 17.5499 24.5655 17.5294 24.6356C17.509 24.7058 17.5016 24.7796 17.5077 24.8528C17.5818 25.7484 17.9952 26.2879 18.4872 26.5755C18.5958 26.6384 18.7056 26.6888 18.8129 26.7273C18.9266 26.7693 19.0098 26.8798 19.0098 27.0093V27.4871C19.0098 27.6356 19.0646 27.778 19.1621 27.883C19.2596 27.9879 19.3919 28.0469 19.5298 28.0469C19.6677 28.0469 19.8 27.9879 19.8975 27.883C19.995 27.778 20.0498 27.6356 20.0498 27.4871V27.0142C20.0498 26.8875 20.1291 26.7784 20.2396 26.7343C20.4346 26.6573 20.6387 26.544 20.8246 26.3914C21.2569 26.0367 21.6163 25.4462 21.5448 24.5995C21.4785 23.8152 21.1132 23.3436 20.6868 23.0532C20.3657 22.8424 20.0048 22.7118 19.6306 22.6712C19.0397 22.6383 18.586 22.2871 18.586 21.6497C18.586 21.2984 18.716 21.0409 18.9071 20.887C19.303 20.526 19.9757 20.5749 20.2936 21.0283C20.434 21.2291 20.497 21.4502 20.5113 21.649C20.5334 21.9568 20.7811 22.2031 21.0677 22.1793C21.3537 22.1555 21.5676 21.9141 21.5455 21.6056C21.5142 21.1625 21.3671 20.7379 21.121 20.3811C20.9234 20.0991 20.5497 19.8284 20.2435 19.6926C20.1883 19.6703 20.1404 19.6309 20.106 19.5793C20.0715 19.5278 20.052 19.4664 20.0498 19.403V18.9048Z" fill="url(#paint6_linear_69_823)"/>
</g>
<g filter="url(#filter4_i_69_823)">
<path d="M20.7102 14.1546H18.3494C17.9721 14.1546 17.6663 14.4838 17.6663 14.89V14.8949C17.6663 15.301 17.9721 15.6302 18.3494 15.6302H20.7102C21.0875 15.6302 21.3934 15.301 21.3934 14.8949V14.89C21.3934 14.4838 21.0875 14.1546 20.7102 14.1546Z" fill="url(#paint7_linear_69_823)"/>
<path d="M20.7102 14.1546H18.3494C17.9721 14.1546 17.6663 14.4838 17.6663 14.89V14.8949C17.6663 15.301 17.9721 15.6302 18.3494 15.6302H20.7102C21.0875 15.6302 21.3934 15.301 21.3934 14.8949V14.89C21.3934 14.4838 21.0875 14.1546 20.7102 14.1546Z" fill="url(#paint8_radial_69_823)"/>
</g>
<path d="M20.7102 14.1546H18.3494C17.9721 14.1546 17.6663 14.4838 17.6663 14.89V14.8949C17.6663 15.301 17.9721 15.6302 18.3494 15.6302H20.7102C21.0875 15.6302 21.3934 15.301 21.3934 14.8949V14.89C21.3934 14.4838 21.0875 14.1546 20.7102 14.1546Z" fill="url(#paint9_radial_69_823)"/>
<defs>
<filter id="filter0_i_69_823" x="11.8872" y="14.0652" width="16.3159" height="15.9038" filterUnits="userSpaceOnUse" color-interpolation-filters="sRGB">
<feFlood flood-opacity="0" result="BackgroundImageFix"/>
<feBlend mode="normal" in="SourceGraphic" in2="BackgroundImageFix" result="shape"/>
<feColorMatrix in="SourceAlpha" type="matrix" values="0 0 0 0 0 0 0 0 0 0 0 0 0 0 0 0 0 0 127 0" result="hardAlpha"/>
<feOffset dx="1" dy="-1.5"/>
<feGaussianBlur stdDeviation="1.75"/>
<feComposite in2="hardAlpha" operator="arithmetic" k2="-1" k3="1"/>
<feColorMatrix type="matrix" values="0 0 0 0 0.713726 0 0 0 0 0.321569 0 0 0 0 0.211765 0 0 0 1 0"/>
<feBlend mode="normal" in2="shape" result="effect1_innerShadow_69_823"/>
</filter>
<filter id="filter1_ii_69_823" x="16.633" y="10.2256" width="5.72407" height="4.12896" filterUnits="userSpaceOnUse" color-interpolation-filters="sRGB">
<feFlood flood-opacity="0" result="BackgroundImageFix"/>
<feBlend mode="normal" in="SourceGraphic" in2="BackgroundImageFix" result="shape"/>
<feColorMatrix in="SourceAlpha" type="matrix" values="0 0 0 0 0 0 0 0 0 0 0 0 0 0 0 0 0 0 127 0" result="hardAlpha"/>
<feOffset dx="-0.2" dy="0.2"/>
<feGaussianBlur stdDeviation="0.15"/>
<feComposite in2="hardAlpha" operator="arithmetic" k2="-1" k3="1"/>
<feColorMatrix type="matrix" values="0 0 0 0 1 0 0 0 0 0.92549 0 0 0 0 0.403922 0 0 0 1 0"/>
<feBlend mode="normal" in2="shape" result="effect1_innerShadow_69_823"/>
<feColorMatrix in="SourceAlpha" type="matrix" values="0 0 0 0 0 0 0 0 0 0 0 0 0 0 0 0 0 0 127 0" result="hardAlpha"/>
<feOffset dx="0.1" dy="-0.25"/>
<feGaussianBlur stdDeviation="0.25"/>
<feComposite in2="hardAlpha" operator="arithmetic" k2="-1" k3="1"/>
<feColorMatrix type="matrix" values="0 0 0 0 0.788235 0 0 0 0 0.364706 0 0 0 0 0.12549 0 0 0 1 0"/>
<feBlend mode="normal" in2="effect1_innerShadow_69_823" result="effect2_innerShadow_69_823"/>
</filter>
<filter id="filter2_f_69_823" x="17.0757" y="18.1164" width="4.64834" height="10.3012" filterUnits="userSpaceOnUse" color-interpolation-filters="sRGB">
<feFlood flood-opacity="0" result="BackgroundImageFix"/>
<feBlend mode="normal" in="SourceGraphic" in2="BackgroundImageFix" result="shape"/>
<feGaussianBlur stdDeviation="0.15" result="effect1_foregroundBlur_69_823"/>
</filter>
<filter id="filter3_ii_69_823" x="17.4056" y="18.145" width="4.29834" height="10.0519" filterUnits="userSpaceOnUse" color-interpolation-filters="sRGB">
<feFlood flood-opacity="0" result="BackgroundImageFix"/>
<feBlend mode="normal" in="SourceGraphic" in2="BackgroundImageFix" result="shape"/>
<feColorMatrix in="SourceAlpha" type="matrix" values="0 0 0 0 0 0 0 0 0 0 0 0 0 0 0 0 0 0 127 0" result="hardAlpha"/>
<feOffset dx="0.15" dy="-0.2"/>
<feGaussianBlur stdDeviation="0.15"/>
<feComposite in2="hardAlpha" operator="arithmetic" k2="-1" k3="1"/>
<feColorMatrix type="matrix" values="0 0 0 0 0.352941 0 0 0 0 0.168627 0 0 0 0 0.188235 0 0 0 1 0"/>
<feBlend mode="normal" in2="shape" result="effect1_innerShadow_69_823"/>
<feColorMatrix in="SourceAlpha" type="matrix" values="0 0 0 0 0 0 0 0 0 0 0 0 0 0 0 0 0 0 127 0" result="hardAlpha"/>
<feOffset dx="-0.1" dy="0.15"/>
<feGaussianBlur stdDeviation="0.11"/>
<feComposite in2="hardAlpha" operator="arithmetic" k2="-1" k3="1"/>
<feColorMatrix type="matrix" values="0 0 0 0 0.670588 0 0 0 0 0.458824 0 0 0 0 0.403922 0 0 0 1 0"/>
<feBlend mode="normal" in2="effect1_innerShadow_69_823" result="effect2_innerShadow_69_823"/>
</filter>
<filter id="filter4_i_69_823" x="17.6663" y="13.5546" width="3.72705" height="2.07565" filterUnits="userSpaceOnUse" color-interpolation-filters="sRGB">
<feFlood flood-opacity="0" result="BackgroundImageFix"/>
<feBlend mode="normal" in="SourceGraphic" in2="BackgroundImageFix" result="shape"/>
<feColorMatrix in="SourceAlpha" type="matrix" values="0 0 0 0 0 0 0 0 0 0 0 0 0 0 0 0 0 0 127 0" result="hardAlpha"/>
<feOffset dy="-0.6"/>
<feGaussianBlur stdDeviation="0.5"/>
<feComposite in2="hardAlpha" operator="arithmetic" k2="-1" k3="1"/>
<feColorMatrix type="matrix" values="0 0 0 0 0.388235 0 0 0 0 0.223529 0 0 0 0 0.109804 0 0 0 1 0"/>
<feBlend mode="normal" in2="shape" result="effect1_innerShadow_69_823"/>
</filter>
<radialGradient id="paint0_radial_69_823" cx="0" cy="0" r="1" gradientUnits="userSpaceOnUse" gradientTransform="translate(21.6366 16.9157) rotate(99.368) scale(12.8533 12.5589)">
<stop stop-color="#F6C93B"/>
<stop offset="1" stop-color="#E88340"/>
</radialGradient>
<radialGradient id="paint1_radial_69_823" cx="0" cy="0" r="1" gradientUnits="userSpaceOnUse" gradientTransform="translate(24.6437 18.9264) rotate(131.1) scale(4.75855 7.91431)">
<stop stop-color="#FFE065"/>
<stop offset="1" stop-color="#FFE065" stop-opacity="0"/>
</radialGradient>
<radialGradient id="paint2_radial_69_823" cx="0" cy="0" r="1" gradientUnits="userSpaceOnUse" gradientTransform="translate(12.9435 18.9272) rotate(33.5667) scale(3.55914 9.09747)">
<stop offset="0.187" stop-color="#FFA45D"/>
<stop offset="1" stop-color="#FFA45D" stop-opacity="0"/>
</radialGradient>
<radialGradient id="paint3_radial_69_823" cx="0" cy="0" r="1" gradientUnits="userSpaceOnUse" gradientTransform="translate(19.5449 26.6671) rotate(-90) scale(11.4137 15.9752)">
<stop offset="0.928" stop-color="#F3BD46" stop-opacity="0"/>
<stop offset="0.98" stop-color="#917011"/>
</radialGradient>
<linearGradient id="paint4_linear_69_823" x1="20.3599" y1="11.7225" x2="19.4324" y2="14.1109" gradientUnits="userSpaceOnUse">
<stop stop-color="#F3C048"/>
<stop offset="1" stop-color="#E67A41"/>
</linearGradient>
<linearGradient id="paint5_linear_69_823" x1="19.4" y1="18.648" x2="19.4" y2="27.6131" gradientUnits="userSpaceOnUse">
<stop stop-color="#A6782C"/>
<stop offset="1" stop-color="#B95940"/>
</linearGradient>
<linearGradient id="paint6_linear_69_823" x1="21.7795" y1="24.3057" x2="17.5057" y2="24.3057" gradientUnits="userSpaceOnUse">
<stop stop-color="#9D6360"/>
<stop offset="1" stop-color="#724A4D"/>
</linearGradient>
<linearGradient id="paint7_linear_69_823" x1="18.1843" y1="14.8928" x2="21.3934" y2="14.8928" gradientUnits="userSpaceOnUse">
<stop stop-color="#834B41"/>
<stop offset="1" stop-color="#735854"/>
</linearGradient>
<radialGradient id="paint8_radial_69_823" cx="0" cy="0" r="1" gradientUnits="userSpaceOnUse" gradientTransform="translate(20.7434 14.6633) rotate(180) scale(1.21367 0.983935)">
<stop stop-color="#7D5A54"/>
<stop offset="1" stop-color="#7D5A54" stop-opacity="0"/>
</radialGradient>
<radialGradient id="paint9_radial_69_823" cx="0" cy="0" r="1" gradientUnits="userSpaceOnUse" gradientTransform="translate(20.9059 14.8928) rotate(180) scale(3.59531 3.10034)">
<stop offset="0.695" stop-color="#B3624D" stop-opacity="0"/>
<stop offset="0.96" stop-color="#B3624D"/>
</radialGradient>
</defs>
</svg>
