<svg width="39" height="41" viewBox="0 0 39 41" fill="none" xmlns="http://www.w3.org/2000/svg">
<rect width="38.8" height="40.39" rx="4" fill="#FFF1E5"/>
<g filter="url(#filter0_i_2001_1401)">
<path d="M11.8873 23.6115C11.8873 19.1678 15.2342 15.5651 19.3623 15.5651H19.7283C23.8558 15.5651 27.2033 19.1678 27.2033 23.6115V23.8116C27.2033 25.4446 26.6006 27.0107 25.5279 28.1654C24.4552 29.3201 23.0003 29.9688 21.4833 29.9688H17.6073C16.0903 29.9688 14.6354 29.3201 13.5627 28.1654C12.49 27.0107 11.8873 25.4446 11.8873 23.8116V23.6115Z" fill="url(#paint0_radial_2001_1401)"/>
<path d="M11.8873 23.6115C11.8873 19.1678 15.2342 15.5651 19.3623 15.5651H19.7283C23.8558 15.5651 27.2033 19.1678 27.2033 23.6115V23.8116C27.2033 25.4446 26.6006 27.0107 25.5279 28.1654C24.4552 29.3201 23.0003 29.9688 21.4833 29.9688H17.6073C16.0903 29.9688 14.6354 29.3201 13.5627 28.1654C12.49 27.0107 11.8873 25.4446 11.8873 23.8116V23.6115Z" fill="url(#paint1_radial_2001_1401)"/>
</g>
<path d="M11.8873 23.6115C11.8873 19.1678 15.2342 15.5651 19.3623 15.5651H19.7283C23.8558 15.5651 27.2033 19.1678 27.2033 23.6115V23.8116C27.2033 25.4446 26.6006 27.0107 25.5279 28.1654C24.4552 29.3201 23.0003 29.9688 21.4833 29.9688H17.6073C16.0903 29.9688 14.6354 29.3201 13.5627 28.1654C12.49 27.0107 11.8873 25.4446 11.8873 23.8116V23.6115Z" fill="url(#paint2_radial_2001_1401)"/>
<path d="M11.8873 23.6115C11.8873 19.1678 15.2342 15.5651 19.3623 15.5651H19.7283C23.8558 15.5651 27.2033 19.1678 27.2033 23.6115V23.8116C27.2033 25.4446 26.6006 27.0107 25.5279 28.1654C24.4552 29.3201 23.0003 29.9688 21.4833 29.9688H17.6073C16.0903 29.9688 14.6354 29.3201 13.5627 28.1654C12.49 27.0107 11.8873 25.4446 11.8873 23.8116V23.6115Z" fill="url(#paint3_radial_2001_1401)"/>
<g filter="url(#filter1_ii_2001_1401)">
<path d="M16.9047 12.285C17.2102 12.8454 17.6554 13.5647 18.2274 14.1545H20.8632C21.4352 13.5647 21.8798 12.8461 22.1859 12.285C22.2225 12.2162 22.2457 12.14 22.2539 12.0612C22.2622 11.9824 22.2553 11.9026 22.2338 11.8268C22.2123 11.7509 22.1766 11.6806 22.1289 11.6202C22.0812 11.5598 22.0225 11.5105 21.9565 11.4754C21.7485 11.3607 21.5041 11.4153 21.3019 11.5419C20.8456 11.8281 20.5824 11.4908 20.18 10.8282C19.9779 10.4952 19.6691 10.4777 19.545 10.4756C19.4215 10.4777 19.1127 10.4952 18.9106 10.8282C18.5076 11.4908 18.245 11.8281 17.7887 11.5419C17.5865 11.4153 17.3421 11.3607 17.1335 11.4754C17.0675 11.5106 17.0088 11.5599 16.9612 11.6204C16.9136 11.6808 16.8779 11.7511 16.8565 11.827C16.8351 11.9028 16.8283 11.9826 16.8366 12.0613C16.8448 12.1401 16.868 12.2162 16.9047 12.285Z" fill="url(#paint4_linear_2001_1401)"/>
</g>
<g filter="url(#filter2_f_2001_1401)">
<path d="M19.9201 18.9761C19.9201 18.8277 19.8653 18.6853 19.7678 18.5803C19.6703 18.4754 19.538 18.4164 19.4001 18.4164C19.2622 18.4164 19.1299 18.4754 19.0324 18.5803C18.9349 18.6853 18.8801 18.8277 18.8801 18.9761V19.5044C18.8801 19.6296 18.8021 19.7381 18.6935 19.7829C18.506 19.8596 18.3293 19.9639 18.1683 20.0928C17.9313 20.2797 17.7393 20.525 17.6085 20.8082C17.4777 21.0913 17.4117 21.4041 17.4163 21.7203C17.4163 22.462 17.727 22.9993 18.1488 23.3436C18.5505 23.6724 19.0361 23.8138 19.4228 23.8516C19.5801 23.8669 19.8148 23.9124 20.0085 24.044C20.1768 24.158 20.3439 24.3532 20.379 24.7716C20.4128 25.1719 20.262 25.4098 20.065 25.5714C19.8375 25.7582 19.573 25.8177 19.506 25.8177C19.3494 25.8177 19.0809 25.7953 18.8534 25.6623C18.6623 25.5504 18.4569 25.3398 18.414 24.8241C18.4017 24.6762 18.3353 24.5397 18.2294 24.4445C18.1236 24.3493 17.9869 24.3032 17.8495 24.3165C17.7121 24.3298 17.5852 24.4012 17.4968 24.5152C17.4084 24.6292 17.3656 24.7763 17.3779 24.9242C17.452 25.8191 17.8654 26.3585 18.3575 26.6468C18.466 26.7098 18.5759 26.7595 18.6831 26.7986C18.7392 26.8175 18.7883 26.8548 18.8236 26.9052C18.8589 26.9557 18.8787 27.0168 18.8801 27.0799V27.5578C18.8801 27.7063 18.9349 27.8486 19.0324 27.9536C19.1299 28.0586 19.2622 28.1175 19.4001 28.1175C19.538 28.1175 19.6703 28.0586 19.7678 27.9536C19.8653 27.8486 19.9201 27.7063 19.9201 27.5578V27.0848C19.9201 26.9589 19.9994 26.849 20.1099 26.8049C20.3049 26.728 20.509 26.6146 20.6949 26.4621C21.1271 26.1073 21.4866 25.5175 21.4151 24.6709C21.3488 23.8865 20.9835 23.4142 20.5571 23.1246C20.236 22.9138 19.875 22.7832 19.5008 22.7425C18.91 22.7097 18.4563 22.3584 18.4563 21.7203C18.4563 21.3691 18.5863 21.1116 18.7774 20.9576C19.1732 20.5966 19.846 20.6456 20.1638 21.099C20.3042 21.2998 20.3673 21.5209 20.3816 21.7203C20.4037 22.0282 20.6513 22.2738 20.938 22.25C21.224 22.2269 21.4378 21.9855 21.4157 21.6769C21.3845 21.2338 21.2373 20.8093 20.9913 20.4525C20.7937 20.1698 20.4199 19.8997 20.1138 19.764C20.0586 19.7417 20.0107 19.7022 19.9762 19.6507C19.9418 19.5991 19.9222 19.5378 19.9201 19.4743V18.9761Z" fill="url(#paint5_linear_2001_1401)"/>
</g>
<g filter="url(#filter3_ii_2001_1401)">
<path d="M20.0501 18.9047C20.0501 18.7563 19.9953 18.6139 19.8978 18.5089C19.8002 18.4039 19.668 18.345 19.5301 18.345C19.3921 18.345 19.2599 18.4039 19.1624 18.5089C19.0648 18.6139 19.0101 18.7563 19.0101 18.9047V19.433C19.0101 19.5589 18.9321 19.6667 18.8235 19.7115C18.636 19.7882 18.4593 19.8925 18.2983 20.0214C18.0615 20.2084 17.8696 20.4537 17.7389 20.7369C17.6082 21.02 17.5423 21.3327 17.5469 21.6489C17.5469 22.3906 17.857 22.9279 18.2788 23.2722C18.6805 23.601 19.1654 23.7431 19.5528 23.7808C19.7101 23.7962 19.9448 23.841 20.1391 23.9726C20.3068 24.0866 20.4739 24.2818 20.5096 24.7002C20.5434 25.1012 20.392 25.339 20.1944 25.5007C19.9669 25.6875 19.703 25.7463 19.6354 25.7463C19.4794 25.7463 19.2109 25.7239 18.9834 25.5916C18.7923 25.4797 18.5869 25.2684 18.544 24.7534C18.538 24.6802 18.5185 24.6089 18.4869 24.5438C18.4553 24.4786 18.412 24.4208 18.3596 24.3736C18.3073 24.3265 18.2467 24.2909 18.1816 24.2689C18.1164 24.2469 18.0478 24.2389 17.9798 24.2454C17.9118 24.252 17.8456 24.2728 17.7851 24.3069C17.7245 24.3409 17.6708 24.3875 17.627 24.4439C17.5832 24.5003 17.5501 24.5654 17.5297 24.6356C17.5092 24.7057 17.5019 24.7795 17.5079 24.8528C17.582 25.7484 17.9954 26.2878 18.4875 26.5754C18.596 26.6384 18.7059 26.6887 18.8131 26.7272C18.9269 26.7692 19.0101 26.8798 19.0101 27.0092V27.4871C19.0101 27.6355 19.0648 27.7779 19.1624 27.8829C19.2599 27.9879 19.3921 28.0468 19.5301 28.0468C19.668 28.0468 19.8002 27.9879 19.8978 27.8829C19.9953 27.7779 20.0501 27.6355 20.0501 27.4871V27.0141C20.0501 26.8875 20.1294 26.7783 20.2399 26.7342C20.4349 26.6573 20.639 26.5439 20.8249 26.3914C21.2571 26.0366 21.6166 25.4461 21.5451 24.5995C21.4788 23.8151 21.1135 23.3435 20.6871 23.0532C20.366 22.8423 20.005 22.7118 19.6308 22.6711C19.04 22.6383 18.5863 22.287 18.5863 21.6496C18.5863 21.2984 18.7163 21.0409 18.9074 20.8869C19.3032 20.5259 19.976 20.5749 20.2938 21.0283C20.4342 21.2291 20.4973 21.4502 20.5116 21.6489C20.5337 21.9568 20.7813 22.203 21.068 22.1793C21.354 22.1555 21.5678 21.9141 21.5457 21.6055C21.5145 21.1624 21.3673 20.7379 21.1213 20.3811C20.9237 20.0991 20.5499 19.8283 20.2438 19.6926C20.1885 19.6702 20.1407 19.6308 20.1062 19.5793C20.0717 19.5277 20.0522 19.4664 20.0501 19.4029V18.9047Z" fill="url(#paint6_linear_2001_1401)"/>
</g>
<g filter="url(#filter4_i_2001_1401)">
<path d="M20.7105 14.1545H18.3497C17.9724 14.1545 17.6665 14.4838 17.6665 14.8899V14.8948C17.6665 15.3009 17.9724 15.6302 18.3497 15.6302H20.7105C21.0877 15.6302 21.3936 15.3009 21.3936 14.8948V14.8899C21.3936 14.4838 21.0877 14.1545 20.7105 14.1545Z" fill="url(#paint7_linear_2001_1401)"/>
<path d="M20.7105 14.1545H18.3497C17.9724 14.1545 17.6665 14.4838 17.6665 14.8899V14.8948C17.6665 15.3009 17.9724 15.6302 18.3497 15.6302H20.7105C21.0877 15.6302 21.3936 15.3009 21.3936 14.8948V14.8899C21.3936 14.4838 21.0877 14.1545 20.7105 14.1545Z" fill="url(#paint8_radial_2001_1401)"/>
</g>
<path d="M20.7105 14.1545H18.3497C17.9724 14.1545 17.6665 14.4838 17.6665 14.8899V14.8948C17.6665 15.3009 17.9724 15.6302 18.3497 15.6302H20.7105C21.0877 15.6302 21.3936 15.3009 21.3936 14.8948V14.8899C21.3936 14.4838 21.0877 14.1545 20.7105 14.1545Z" fill="url(#paint9_radial_2001_1401)"/>
<defs>
<filter id="filter0_i_2001_1401" x="11.8873" y="14.0651" width="16.3159" height="15.9038" filterUnits="userSpaceOnUse" color-interpolation-filters="sRGB">
<feFlood flood-opacity="0" result="BackgroundImageFix"/>
<feBlend mode="normal" in="SourceGraphic" in2="BackgroundImageFix" result="shape"/>
<feColorMatrix in="SourceAlpha" type="matrix" values="0 0 0 0 0 0 0 0 0 0 0 0 0 0 0 0 0 0 127 0" result="hardAlpha"/>
<feOffset dx="1" dy="-1.5"/>
<feGaussianBlur stdDeviation="1.75"/>
<feComposite in2="hardAlpha" operator="arithmetic" k2="-1" k3="1"/>
<feColorMatrix type="matrix" values="0 0 0 0 0.713726 0 0 0 0 0.321569 0 0 0 0 0.211765 0 0 0 1 0"/>
<feBlend mode="normal" in2="shape" result="effect1_innerShadow_2001_1401"/>
</filter>
<filter id="filter1_ii_2001_1401" x="16.6331" y="10.2256" width="5.72419" height="4.12896" filterUnits="userSpaceOnUse" color-interpolation-filters="sRGB">
<feFlood flood-opacity="0" result="BackgroundImageFix"/>
<feBlend mode="normal" in="SourceGraphic" in2="BackgroundImageFix" result="shape"/>
<feColorMatrix in="SourceAlpha" type="matrix" values="0 0 0 0 0 0 0 0 0 0 0 0 0 0 0 0 0 0 127 0" result="hardAlpha"/>
<feOffset dx="-0.2" dy="0.2"/>
<feGaussianBlur stdDeviation="0.15"/>
<feComposite in2="hardAlpha" operator="arithmetic" k2="-1" k3="1"/>
<feColorMatrix type="matrix" values="0 0 0 0 1 0 0 0 0 0.92549 0 0 0 0 0.403922 0 0 0 1 0"/>
<feBlend mode="normal" in2="shape" result="effect1_innerShadow_2001_1401"/>
<feColorMatrix in="SourceAlpha" type="matrix" values="0 0 0 0 0 0 0 0 0 0 0 0 0 0 0 0 0 0 127 0" result="hardAlpha"/>
<feOffset dx="0.1" dy="-0.25"/>
<feGaussianBlur stdDeviation="0.25"/>
<feComposite in2="hardAlpha" operator="arithmetic" k2="-1" k3="1"/>
<feColorMatrix type="matrix" values="0 0 0 0 0.788235 0 0 0 0 0.364706 0 0 0 0 0.12549 0 0 0 1 0"/>
<feBlend mode="normal" in2="effect1_innerShadow_2001_1401" result="effect2_innerShadow_2001_1401"/>
</filter>
<filter id="filter2_f_2001_1401" x="17.0759" y="18.1164" width="4.64834" height="10.3012" filterUnits="userSpaceOnUse" color-interpolation-filters="sRGB">
<feFlood flood-opacity="0" result="BackgroundImageFix"/>
<feBlend mode="normal" in="SourceGraphic" in2="BackgroundImageFix" result="shape"/>
<feGaussianBlur stdDeviation="0.15" result="effect1_foregroundBlur_2001_1401"/>
</filter>
<filter id="filter3_ii_2001_1401" x="17.4059" y="18.145" width="4.29834" height="10.0519" filterUnits="userSpaceOnUse" color-interpolation-filters="sRGB">
<feFlood flood-opacity="0" result="BackgroundImageFix"/>
<feBlend mode="normal" in="SourceGraphic" in2="BackgroundImageFix" result="shape"/>
<feColorMatrix in="SourceAlpha" type="matrix" values="0 0 0 0 0 0 0 0 0 0 0 0 0 0 0 0 0 0 127 0" result="hardAlpha"/>
<feOffset dx="0.15" dy="-0.2"/>
<feGaussianBlur stdDeviation="0.15"/>
<feComposite in2="hardAlpha" operator="arithmetic" k2="-1" k3="1"/>
<feColorMatrix type="matrix" values="0 0 0 0 0.352941 0 0 0 0 0.168627 0 0 0 0 0.188235 0 0 0 1 0"/>
<feBlend mode="normal" in2="shape" result="effect1_innerShadow_2001_1401"/>
<feColorMatrix in="SourceAlpha" type="matrix" values="0 0 0 0 0 0 0 0 0 0 0 0 0 0 0 0 0 0 127 0" result="hardAlpha"/>
<feOffset dx="-0.1" dy="0.15"/>
<feGaussianBlur stdDeviation="0.11"/>
<feComposite in2="hardAlpha" operator="arithmetic" k2="-1" k3="1"/>
<feColorMatrix type="matrix" values="0 0 0 0 0.670588 0 0 0 0 0.458824 0 0 0 0 0.403922 0 0 0 1 0"/>
<feBlend mode="normal" in2="effect1_innerShadow_2001_1401" result="effect2_innerShadow_2001_1401"/>
</filter>
<filter id="filter4_i_2001_1401" x="17.6665" y="13.5545" width="3.72705" height="2.07559" filterUnits="userSpaceOnUse" color-interpolation-filters="sRGB">
<feFlood flood-opacity="0" result="BackgroundImageFix"/>
<feBlend mode="normal" in="SourceGraphic" in2="BackgroundImageFix" result="shape"/>
<feColorMatrix in="SourceAlpha" type="matrix" values="0 0 0 0 0 0 0 0 0 0 0 0 0 0 0 0 0 0 127 0" result="hardAlpha"/>
<feOffset dy="-0.6"/>
<feGaussianBlur stdDeviation="0.5"/>
<feComposite in2="hardAlpha" operator="arithmetic" k2="-1" k3="1"/>
<feColorMatrix type="matrix" values="0 0 0 0 0.388235 0 0 0 0 0.223529 0 0 0 0 0.109804 0 0 0 1 0"/>
<feBlend mode="normal" in2="shape" result="effect1_innerShadow_2001_1401"/>
</filter>
<radialGradient id="paint0_radial_2001_1401" cx="0" cy="0" r="1" gradientUnits="userSpaceOnUse" gradientTransform="translate(21.6368 16.9156) rotate(99.368) scale(12.8533 12.5589)">
<stop stop-color="#F6C93B"/>
<stop offset="1" stop-color="#E88340"/>
</radialGradient>
<radialGradient id="paint1_radial_2001_1401" cx="0" cy="0" r="1" gradientUnits="userSpaceOnUse" gradientTransform="translate(24.6438 18.9263) rotate(131.1) scale(4.75855 7.91431)">
<stop stop-color="#FFE065"/>
<stop offset="1" stop-color="#FFE065" stop-opacity="0"/>
</radialGradient>
<radialGradient id="paint2_radial_2001_1401" cx="0" cy="0" r="1" gradientUnits="userSpaceOnUse" gradientTransform="translate(12.9436 18.9271) rotate(33.5667) scale(3.55914 9.09747)">
<stop offset="0.187" stop-color="#FFA45D"/>
<stop offset="1" stop-color="#FFA45D" stop-opacity="0"/>
</radialGradient>
<radialGradient id="paint3_radial_2001_1401" cx="0" cy="0" r="1" gradientUnits="userSpaceOnUse" gradientTransform="translate(19.545 26.667) rotate(-90) scale(11.4137 15.9752)">
<stop offset="0.928" stop-color="#F3BD46" stop-opacity="0"/>
<stop offset="0.98" stop-color="#917011"/>
</radialGradient>
<linearGradient id="paint4_linear_2001_1401" x1="20.3601" y1="11.7224" x2="19.4325" y2="14.1109" gradientUnits="userSpaceOnUse">
<stop stop-color="#F3C048"/>
<stop offset="1" stop-color="#E67A41"/>
</linearGradient>
<linearGradient id="paint5_linear_2001_1401" x1="19.4001" y1="18.648" x2="19.4001" y2="27.6131" gradientUnits="userSpaceOnUse">
<stop stop-color="#A6782C"/>
<stop offset="1" stop-color="#B95940"/>
</linearGradient>
<linearGradient id="paint6_linear_2001_1401" x1="21.7797" y1="24.3056" x2="17.506" y2="24.3056" gradientUnits="userSpaceOnUse">
<stop stop-color="#9D6360"/>
<stop offset="1" stop-color="#724A4D"/>
</linearGradient>
<linearGradient id="paint7_linear_2001_1401" x1="18.1846" y1="14.8927" x2="21.3936" y2="14.8927" gradientUnits="userSpaceOnUse">
<stop stop-color="#834B41"/>
<stop offset="1" stop-color="#735854"/>
</linearGradient>
<radialGradient id="paint8_radial_2001_1401" cx="0" cy="0" r="1" gradientUnits="userSpaceOnUse" gradientTransform="translate(20.7436 14.6632) rotate(180) scale(1.21367 0.983935)">
<stop stop-color="#7D5A54"/>
<stop offset="1" stop-color="#7D5A54" stop-opacity="0"/>
</radialGradient>
<radialGradient id="paint9_radial_2001_1401" cx="0" cy="0" r="1" gradientUnits="userSpaceOnUse" gradientTransform="translate(20.9061 14.8927) rotate(180) scale(3.59531 3.10034)">
<stop offset="0.695" stop-color="#B3624D" stop-opacity="0"/>
<stop offset="0.96" stop-color="#B3624D"/>
</radialGradient>
</defs>
</svg>
