<svg width="12" height="12" viewBox="0 0 12 12" fill="none" xmlns="http://www.w3.org/2000/svg">
<path d="M6.65625 8.25C6.65625 8.32459 6.62662 8.39613 6.57388 8.44887C6.52113 8.50162 6.44959 8.53125 6.375 8.53125C6.20095 8.53125 6.03403 8.46211 5.91096 8.33904C5.78789 8.21597 5.71875 8.04905 5.71875 7.875V6C5.71875 5.97514 5.70888 5.95129 5.69129 5.93371C5.67371 5.91613 5.64987 5.90625 5.625 5.90625C5.55041 5.90625 5.47887 5.87662 5.42613 5.82387C5.37338 5.77113 5.34375 5.69959 5.34375 5.625C5.34375 5.55041 5.37338 5.47887 5.42613 5.42613C5.47887 5.37338 5.55041 5.34375 5.625 5.34375C5.79905 5.34375 5.96597 5.41289 6.08904 5.53596C6.21211 5.65903 6.28125 5.82595 6.28125 6V7.875C6.28125 7.89986 6.29113 7.92371 6.30871 7.94129C6.32629 7.95887 6.35014 7.96875 6.375 7.96875C6.44959 7.96875 6.52113 7.99838 6.57388 8.05113C6.62662 8.10387 6.65625 8.17541 6.65625 8.25ZM5.8125 4.40625C5.90521 4.40625 5.99584 4.37876 6.07293 4.32725C6.15001 4.27574 6.21009 4.20254 6.24557 4.11688C6.28105 4.03123 6.29033 3.93698 6.27224 3.84605C6.25416 3.75512 6.20951 3.6716 6.14396 3.60604C6.0784 3.54049 5.99488 3.49584 5.90395 3.47776C5.81302 3.45967 5.71877 3.46895 5.63312 3.50443C5.54747 3.53991 5.47426 3.59999 5.42275 3.67708C5.37124 3.75416 5.34375 3.84479 5.34375 3.9375C5.34375 4.06182 5.39314 4.18105 5.48105 4.26896C5.56895 4.35686 5.68818 4.40625 5.8125 4.40625ZM10.7813 6C10.7813 6.94564 10.5008 7.87005 9.97547 8.65632C9.4501 9.44259 8.70337 10.0554 7.82971 10.4173C6.95605 10.7792 5.9947 10.8739 5.06723 10.6894C4.13975 10.5049 3.28782 10.0495 2.61915 9.38085C1.95048 8.71218 1.49511 7.86025 1.31062 6.93278C1.12614 6.0053 1.22082 5.04395 1.5827 4.1703C1.94458 3.29664 2.55741 2.54991 3.34368 2.02454C4.12995 1.49917 5.05436 1.21875 6 1.21875C7.26761 1.22024 8.48288 1.72445 9.37921 2.62079C10.2755 3.51713 10.7798 4.73239 10.7813 6ZM10.2188 6C10.2188 5.16561 9.97133 4.34996 9.50776 3.65619C9.0442 2.96242 8.38532 2.42169 7.61445 2.10238C6.84357 1.78308 5.99532 1.69953 5.17696 1.86231C4.35861 2.02509 3.6069 2.42689 3.0169 3.01689C2.42689 3.6069 2.0251 4.35861 1.86231 5.17696C1.69953 5.99532 1.78308 6.84357 2.10239 7.61445C2.42169 8.38532 2.96242 9.0442 3.65619 9.50776C4.34996 9.97132 5.16561 10.2188 6 10.2188C7.1185 10.2175 8.19084 9.77264 8.98174 8.98174C9.77264 8.19084 10.2175 7.1185 10.2188 6Z" fill="#ABABAB"/>
</svg>
