<svg width="59" height="59" viewBox="0 0 59 59" fill="none" xmlns="http://www.w3.org/2000/svg">
<circle cx="29.5" cy="29.5" r="29.5" fill="#AA6C39" fill-opacity="0.2"/>
<circle cx="29.5" cy="29.5" r="22.5" fill="#936035" fill-opacity="0.2"/>
<path d="M41.0705 17.8801V21.5987C41.0705 24.4107 39.1835 26.7768 36.6113 27.4967V22.057H31.5762C32.3856 19.631 34.6722 17.8801 37.3636 17.8801H41.068H41.0705Z" fill="white"/>
<path d="M28.5571 35.7035C27.7825 38.1917 25.466 40 22.7275 40H19.0206V36.2839C19.0206 33.6462 20.6816 31.4021 23.008 30.5353V35.7035H28.5571Z" fill="white"/>
<path d="M28.8327 24.0072V27.7233H25.1259C24.381 27.7233 23.666 27.5913 23.008 27.3447C20.6816 26.4804 19.0206 24.2338 19.0206 21.5987V17.8801H22.7275C25.4213 17.8801 27.708 19.631 28.5174 22.057C28.7235 22.6697 28.8327 23.3247 28.8327 24.0072Z" fill="white"/>
<path d="M41.0705 36.2839V40H37.3637C34.6276 40 32.3111 38.1917 31.5365 35.7035C31.3553 35.1257 31.2584 34.5105 31.2584 33.8754V30.1567H34.9653C35.5338 30.1567 36.0875 30.234 36.6114 30.3834C39.1836 31.1032 41.0705 33.4719 41.0705 36.2839Z" fill="white"/>
</svg>
