<svg width="170" height="29" viewBox="0 0 170 29" fill="none" xmlns="http://www.w3.org/2000/svg">
<path d="M27.9432 0V4.71249C27.9432 8.27606 25.5519 11.2746 22.2923 12.1868V5.29327H15.9114C16.9371 2.21894 19.8349 0 23.2456 0H27.9401H27.9432Z" fill="#AA6C39"/>
<path d="M12.0853 22.5872C11.1036 25.7404 8.16805 28.0319 4.69758 28.0319H0V23.3226C0 19.98 2.10494 17.1361 5.05312 16.0377V22.5872H12.0853Z" fill="#AA6C39"/>
<path d="M12.4346 7.76472V12.4741H7.737C6.79308 12.4741 5.88691 12.3068 5.05312 11.9943C2.10494 10.899 0 8.05195 0 4.71249V0H4.69758C8.11142 0 11.0093 2.21894 12.035 5.29327C12.2961 6.06974 12.4346 6.89987 12.4346 7.76472Z" fill="#AA6C39"/>
<path d="M27.9432 23.3226V28.0319H23.2457C19.7783 28.0319 16.8427 25.7404 15.8611 22.5871C15.6314 21.8549 15.5087 21.0752 15.5087 20.2704V15.5579H20.2062C20.9268 15.5579 21.6284 15.6557 22.2923 15.8451C25.552 16.7573 27.9432 19.759 27.9432 23.3226Z" fill="#AA6C39"/>
<path d="M58.4633 2.2821H59.6338V25.7878C56.5 25.7878 53.5392 24.3453 51.601 21.877L41.6112 9.15988V22.0885C41.6112 24.1306 39.9594 25.7878 37.9236 25.7878H36.7532V2.2821H36.7721C39.8933 2.2821 42.8446 3.71195 44.7859 6.16762L54.7758 18.8058V5.9814C54.7758 3.93921 56.4276 2.2821 58.4633 2.2821Z" fill="#AA6C39"/>
<path d="M84.805 10.1983V18.0451C84.805 23.1616 79.9815 26.1349 73.8807 26.1349C67.7798 26.1349 62.991 23.1269 62.991 18.0451V10.1983C62.991 5.08182 67.8144 1.93805 73.8807 1.93805C79.9469 1.93805 84.805 5.08497 84.805 10.1983ZM79.5662 10.4761C79.5662 7.74581 76.7061 6.25915 73.8807 6.25915C70.5046 6.25915 68.2297 7.78053 68.2297 10.4761V17.7358C68.2297 20.5008 70.6776 21.8486 73.8807 21.8486C77.0837 21.8486 79.5662 20.5008 79.5662 17.7358V10.4761Z" fill="#626261"/>
<path d="M91.9819 6.6032H87.2623V2.2821H92.4476C95.1032 2.2821 97.2553 4.44108 97.2553 7.10507V25.7909H91.9819V6.6032Z" fill="#626261"/>
<path d="M122.983 2.2821C122.983 4.28957 122.266 6.23075 120.957 7.74897L109.199 21.4319H118.572C120.97 21.4319 122.914 23.3826 122.914 25.7878H101.962V25.7814C101.962 23.7582 102.692 21.8012 104.02 20.2767L115.85 6.67265H106.477C104.08 6.67265 102.135 4.722 102.135 2.31682V2.2821H122.983Z" fill="#AA6C39"/>
<path d="M131.419 15.9367V21.5014H145.169V25.7878H130.777C128.238 25.7878 126.18 23.7235 126.18 21.1763V6.89359C126.18 4.34639 128.238 2.2821 130.777 2.2821H144.445V6.6032H131.419V11.7544H142.343V15.9367H131.419Z" fill="#AA6C39"/>
<path d="M147.088 6.63793C147.088 4.23275 149.032 2.2821 151.43 2.2821H170.003C170.003 4.68727 168.059 6.63793 165.661 6.63793H161.077V25.7878H155.838V6.63793H147.085H147.088Z" fill="#AA6C39"/>
</svg>
