<svg width="170" height="29" viewBox="0 0 170 29" fill="none" xmlns="http://www.w3.org/2000/svg">
<g clip-path="url(#clip0_183_1757)">
<path d="M27.9432 1.52588e-05V4.71251C27.9432 8.27608 25.5519 11.2746 22.2923 12.1868V5.29328H15.9114C16.9371 2.21896 19.8349 1.52588e-05 23.2456 1.52588e-05H27.9401H27.9432Z" fill="#AA6C39"/>
<path d="M12.0853 22.5871C11.1036 25.7404 8.16805 28.0319 4.69758 28.0319H0V23.3226C0 19.98 2.10494 17.1361 5.05312 16.0376V22.5871H12.0853Z" fill="#AA6C39"/>
<path d="M12.4346 7.76472V12.4741H7.737C6.79308 12.4741 5.88691 12.3068 5.05312 11.9943C2.10494 10.899 0 8.05195 0 4.71249V0H4.69758C8.11142 0 11.0093 2.21894 12.035 5.29327C12.2961 6.06974 12.4346 6.89987 12.4346 7.76472Z" fill="#AA6C39"/>
<path d="M27.9432 23.3226V28.0319H23.2457C19.7783 28.0319 16.8427 25.7404 15.8611 22.5871C15.6314 21.8549 15.5087 21.0752 15.5087 20.2704V15.5579H20.2062C20.9268 15.5579 21.6284 15.6557 22.2923 15.8451C25.552 16.7573 27.9432 19.759 27.9432 23.3226Z" fill="#AA6C39"/>
<path d="M58.4633 2.28207H59.6338V25.7877C56.5 25.7877 53.5392 24.3453 51.601 21.877L41.6112 9.15985V22.0884C41.6112 24.1306 39.9594 25.7877 37.9236 25.7877H36.7532V2.28207H36.7721C39.8933 2.28207 42.8446 3.71192 44.7859 6.16759L54.7758 18.8058V5.98137C54.7758 3.93918 56.4276 2.28207 58.4633 2.28207Z" fill="#AA6C39"/>
<path d="M84.805 10.1983V18.0451C84.805 23.1616 79.9815 26.1349 73.8807 26.1349C67.7798 26.1349 62.991 23.1269 62.991 18.0451V10.1983C62.991 5.0818 67.8144 1.93803 73.8807 1.93803C79.9469 1.93803 84.805 5.08496 84.805 10.1983ZM79.5662 10.4761C79.5662 7.74579 76.7061 6.25913 73.8807 6.25913C70.5046 6.25913 68.2297 7.78051 68.2297 10.4761V17.7358C68.2297 20.5008 70.6776 21.8486 73.8807 21.8486C77.0837 21.8486 79.5662 20.5008 79.5662 17.7358V10.4761Z" fill="white"/>
<path d="M91.9819 6.60317H87.2623V2.28207H92.4476C95.1032 2.28207 97.2553 4.44105 97.2553 7.10504V25.7909H91.9819V6.60317Z" fill="white"/>
<path d="M122.983 2.28207C122.983 4.28954 122.266 6.23072 120.957 7.74894L109.199 21.4319H118.572C120.97 21.4319 122.914 23.3826 122.914 25.7877H101.962V25.7814C101.962 23.7582 102.692 21.8012 104.02 20.2767L115.85 6.67261H106.477C104.08 6.67261 102.135 4.72196 102.135 2.31679V2.28207H122.983Z" fill="#AA6C39"/>
<path d="M131.419 15.9366V21.5013H145.169V25.7877H130.777C128.238 25.7877 126.18 23.7234 126.18 21.1762V6.89356C126.18 4.34635 128.238 2.28207 130.777 2.28207H144.445V6.60317H131.419V11.7544H142.343V15.9366H131.419Z" fill="#AA6C39"/>
<path d="M147.088 6.63789C147.088 4.23272 149.032 2.28207 151.43 2.28207H170.003C170.003 4.68724 168.059 6.63789 165.661 6.63789H161.077V25.7877H155.838V6.63789H147.085H147.088Z" fill="#AA6C39"/>
</g>
<defs>
<clipPath id="clip0_183_1757">
<rect width="170" height="28.0319" fill="white"/>
</clipPath>
</defs>
</svg>
