<svg width="15" height="14" viewBox="0 0 15 14" fill="none" xmlns="http://www.w3.org/2000/svg">
<g id="logos:metamask-icon" clip-path="url(#clip0_190_2470)">
<path id="Vector" d="M14.6522 0L8.21582 4.74127L9.41271 1.94711L14.6522 0Z" fill="#E17726"/>
<path id="Vector_2" d="M0.36248 0.00559998L5.58793 1.94746L6.72441 4.77826L0.36248 0.00559998ZM12.0618 10.0834L14.9066 10.1373L13.9124 13.4997L10.4411 12.5483L12.0618 10.0834ZM2.93756 10.0834L4.55223 12.5483L1.08682 13.4998L0.0986328 10.1373L2.93756 10.0834Z" fill="#E27625"/>
<path id="Vector_3" d="M6.57053 4.0572L6.68678 7.79537L3.20801 7.63781L4.19754 6.1516L4.21008 6.1373L6.57053 4.0572ZM8.39414 4.01549L10.7906 6.13742L10.803 6.15165L11.7926 7.63787L8.31457 7.79537L8.39414 4.01549ZM4.65475 10.0942L6.55424 11.5677L4.34771 12.6282L4.65475 10.0942ZM10.3463 10.094L10.647 12.6283L8.44658 11.5676L10.3463 10.094Z" fill="#E27625"/>
<path id="Vector_4" d="M8.49514 11.4288L10.728 12.5052L8.651 13.4878L8.67256 12.8384L8.49514 11.4288ZM6.50488 11.4293L6.33443 12.8277L6.34844 13.4871L4.2666 12.5052L6.50488 11.4293Z" fill="#D5BFB2"/>
<path id="Vector_5" d="M5.86006 8.28328L6.44354 9.50408L4.45703 8.92471L5.86006 8.28328ZM9.14043 8.2834L10.5501 8.92471L8.55707 9.5039L9.14043 8.2834Z" fill="#233447"/>
<path id="Vector_6" d="M4.80584 10.0818L4.48475 12.7091L2.76367 10.1392L4.80584 10.0818ZM10.1935 10.0818L12.2358 10.1392L10.5082 12.7092L10.1935 10.0818ZM11.8421 7.48924L10.3559 8.99722L9.20998 8.47589L8.66137 9.62413L8.30172 7.6496L11.8421 7.48924ZM3.15637 7.48924L6.69748 7.6496L6.33777 9.62413L5.78904 8.47607L4.64922 8.99728L3.15637 7.48924Z" fill="#CC6228"/>
<path id="Vector_7" d="M3.05664 7.17979L4.73816 8.87852L4.79641 10.5555L3.05664 7.17979ZM11.9451 7.17676L10.2022 10.5585L10.2678 8.87852L11.9451 7.17676ZM6.61568 7.28327L6.68336 7.70736L6.85059 8.76383L6.74307 12.0086L6.23477 9.402L6.23459 9.37505L6.61568 7.28327ZM8.38352 7.27738L8.76561 9.37505L8.76543 9.402L8.25584 12.0152L8.23568 11.3615L8.15617 8.74458L8.38352 7.27738Z" fill="#E27525"/>
<path id="Vector_8" d="M10.4172 8.81102L10.3604 10.2681L8.58648 11.644L8.22789 11.3917L8.62984 9.33054L10.4172 8.81102ZM4.58887 8.81102L6.37006 9.33054L6.77201 11.3917L6.41342 11.644L4.63949 10.268L4.58887 8.81102Z" fill="#F5841F"/>
<path id="Vector_9" d="M3.92676 12.1834L6.19621 13.2539L6.1866 12.7968L6.3765 12.6308H8.62264L8.81939 12.7962L8.80486 13.253L11.06 12.1861L9.96262 13.0888L8.63576 13.9961H6.35828L5.0323 13.0851L3.92676 12.1834Z" fill="#C0AC9D"/>
<path id="Vector_10" d="M8.33248 11.2863L8.65334 11.512L8.84137 13.0055L8.56926 12.7768H6.43199L6.16504 13.0101L6.34691 11.5121L6.66789 11.2863H8.33248Z" fill="#161616"/>
<path id="Vector_11" d="M14.2274 0.131248L15 2.43874L14.5175 4.7719L14.8611 5.03574L14.3961 5.38889L14.7456 5.65757L14.2829 6.07705L14.5669 6.28186L13.8131 7.15837L10.7211 6.26208L10.6943 6.24779L8.46615 4.37657L14.2274 0.131248ZM0.772617 0.131248L6.53391 4.37657L4.3057 6.24779L4.27893 6.26208L1.18693 7.15837L0.433066 6.28186L0.716895 6.07722L0.254473 5.65757L0.603223 5.38918L0.131309 5.03504L0.487852 4.77102L0 2.43886L0.772617 0.131248Z" fill="#763E1A"/>
<path id="Vector_12" d="M10.57 6.06608L13.8461 7.01569L14.9105 10.2815H12.1024L10.1677 10.3058L11.5747 7.57534L10.57 6.06608ZM4.43029 6.06608L3.42535 7.57534L4.8326 10.3058L2.89871 10.2815H0.0957031L1.15408 7.01575L4.43029 6.06608ZM9.57342 1.93153L8.65707 4.39548L8.4626 7.72398L8.38818 8.76727L8.38227 11.4324H6.61795L6.61221 8.77228L6.53756 7.7231L6.34303 4.39548L5.4268 1.93153H9.57342Z" fill="#F5841F"/>
</g>
<defs>
<clipPath id="clip0_190_2470">
<rect width="15" height="14" fill="white"/>
</clipPath>
</defs>
</svg>
