<svg width="24" height="25" viewBox="0 0 24 25" fill="none" xmlns="http://www.w3.org/2000/svg">
<path d="M19.9 12.6919C19.7397 12.5094 19.6513 12.2748 19.6513 12.0319C19.6513 11.789 19.7397 11.5544 19.9 11.3719L21.18 9.93192C21.3211 9.77459 21.4087 9.57663 21.4302 9.36643C21.4518 9.15623 21.4062 8.94461 21.3 8.76192L19.3 5.30192C19.1949 5.11944 19.0349 4.9748 18.8428 4.88861C18.6506 4.80242 18.4362 4.77908 18.23 4.82192L16.35 5.20192C16.1108 5.25135 15.8618 5.21151 15.6499 5.08992C15.438 4.96833 15.278 4.77341 15.2 4.54192L14.59 2.71192C14.5229 2.5133 14.3951 2.34079 14.2246 2.21877C14.0542 2.09674 13.8497 2.03138 13.64 2.03192H9.64002C9.42195 2.02054 9.20615 2.08085 9.02558 2.20364C8.84501 2.32643 8.7096 2.50494 8.64002 2.71192L8.08002 4.54192C8.00202 4.77341 7.84199 4.96833 7.63013 5.08992C7.41827 5.21151 7.16924 5.25135 6.93002 5.20192L5.00002 4.82192C4.80457 4.7943 4.60532 4.82515 4.42737 4.91056C4.24941 4.99598 4.10072 5.13215 4.00002 5.30192L2.00002 8.76192C1.89118 8.94257 1.84224 9.15301 1.8602 9.36315C1.87816 9.57328 1.9621 9.77236 2.10002 9.93192L3.37002 11.3719C3.53034 11.5544 3.61875 11.789 3.61875 12.0319C3.61875 12.2748 3.53034 12.5094 3.37002 12.6919L2.10002 14.1319C1.9621 14.2915 1.87816 14.4906 1.8602 14.7007C1.84224 14.9108 1.89118 15.1213 2.00002 15.3019L4.00002 18.7619C4.10512 18.9444 4.26514 19.089 4.45727 19.1752C4.6494 19.2614 4.86384 19.2848 5.07002 19.2419L6.95002 18.8619C7.18924 18.8125 7.43827 18.8523 7.65013 18.9739C7.86199 19.0955 8.02202 19.2904 8.10002 19.5219L8.71002 21.3519C8.7796 21.5589 8.91501 21.7374 9.09558 21.8602C9.27615 21.983 9.49195 22.0433 9.71002 22.0319H13.71C13.9197 22.0325 14.1242 21.9671 14.2946 21.8451C14.4651 21.7231 14.5929 21.5505 14.66 21.3519L15.27 19.5219C15.348 19.2904 15.508 19.0955 15.7199 18.9739C15.9318 18.8523 16.1808 18.8125 16.42 18.8619L18.3 19.2419C18.5062 19.2848 18.7206 19.2614 18.9128 19.1752C19.1049 19.089 19.2649 18.9444 19.37 18.7619L21.37 15.3019C21.4762 15.1192 21.5218 14.9076 21.5002 14.6974C21.4787 14.4872 21.3911 14.2893 21.25 14.1319L19.9 12.6919ZM18.41 14.0319L19.21 14.9319L17.93 17.1519L16.75 16.9119C16.0298 16.7647 15.2806 16.887 14.6446 17.2557C14.0086 17.6244 13.5302 18.2138 13.3 18.9119L12.92 20.0319H10.36L10 18.8919C9.76987 18.1938 9.2914 17.6044 8.65542 17.2357C8.01945 16.867 7.27024 16.7447 6.55002 16.8919L5.37002 17.1319L4.07002 14.9219L4.87002 14.0219C5.36197 13.4719 5.63395 12.7599 5.63395 12.0219C5.63395 11.284 5.36197 10.5719 4.87002 10.0219L4.07002 9.12192L5.35002 6.92192L6.53002 7.16192C7.25024 7.30915 7.99945 7.1868 8.63542 6.81812C9.2714 6.44944 9.74987 5.86008 9.98002 5.16192L10.36 4.03192H12.92L13.3 5.17192C13.5302 5.87008 14.0086 6.45944 14.6446 6.82812C15.2806 7.1968 16.0298 7.31915 16.75 7.17192L17.93 6.93192L19.21 9.15192L18.41 10.0519C17.9236 10.6007 17.655 11.3086 17.655 12.0419C17.655 12.7752 17.9236 13.4832 18.41 14.0319ZM11.64 8.03192C10.8489 8.03192 10.0755 8.26652 9.41774 8.70605C8.75994 9.14557 8.24725 9.77028 7.9445 10.5012C7.64175 11.2321 7.56254 12.0364 7.71688 12.8123C7.87122 13.5882 8.25218 14.3009 8.81159 14.8604C9.371 15.4198 10.0837 15.8007 10.8597 15.9551C11.6356 16.1094 12.4398 16.0302 13.1708 15.7274C13.9017 15.4247 14.5264 14.912 14.9659 14.2542C15.4054 13.5964 15.64 12.823 15.64 12.0319C15.64 10.9711 15.2186 9.95364 14.4684 9.2035C13.7183 8.45335 12.7009 8.03192 11.64 8.03192ZM11.64 14.0319C11.2445 14.0319 10.8578 13.9146 10.5289 13.6949C10.2 13.4751 9.94363 13.1627 9.79226 12.7973C9.64088 12.4318 9.60128 12.0297 9.67845 11.6417C9.75562 11.2538 9.9461 10.8974 10.2258 10.6177C10.5055 10.338 10.8619 10.1475 11.2498 10.0704C11.6378 9.99318 12.0399 10.0328 12.4054 10.1842C12.7708 10.3355 13.0832 10.5919 13.303 10.9208C13.5227 11.2497 13.64 11.6364 13.64 12.0319C13.64 12.5624 13.4293 13.0711 13.0542 13.4461C12.6792 13.8212 12.1705 14.0319 11.64 14.0319Z" fill="#816752"/>
</svg>
