<svg width="24" height="25" viewBox="0 0 24 25" fill="none" xmlns="http://www.w3.org/2000/svg">
<path d="M0.857178 18.8891L5.04689 22.3793C5.66279 22.893 6.43923 23.1744 7.24118 23.1748H18.2863C19.0749 23.1748 19.7143 22.5353 19.7143 21.7468C19.7143 20.1696 18.4355 18.8891 16.8566 18.8891H9.17832" stroke="#86674D" stroke-linecap="round" stroke-linejoin="round"/>
<path d="M6.00003 17.1748L7.28575 18.4605C7.62674 18.8015 8.08923 18.9931 8.57146 18.9931C9.0537 18.9931 9.51618 18.8015 9.85718 18.4605C10.1982 18.1195 10.3897 17.657 10.3897 17.1748C10.3897 16.6925 10.1982 16.2301 9.85718 15.8891L7.86175 13.8936C7.21892 13.2506 6.34699 12.8893 5.43775 12.8891H0.857178" stroke="#86674D" stroke-linecap="round" stroke-linejoin="round"/>
<path d="M13.8462 8.64731C14.1726 8.64731 14.4857 8.51764 14.7165 8.28682C14.9473 8.05601 15.077 7.74296 15.077 7.41654C15.077 7.09012 14.9473 6.77707 14.7165 6.54625C14.4857 6.31544 14.1726 6.18577 13.8462 6.18577C13.5198 6.18577 13.2067 6.31544 12.9759 6.54625C12.7451 6.77707 12.6154 7.09012 12.6154 7.41654C12.6154 7.74296 12.7451 8.05601 12.9759 8.28682C13.2067 8.51764 13.5198 8.64731 13.8462 8.64731ZM21.5385 5.26269L15.6923 1.87807L9.84619 5.26269V12.0319L15.6923 15.4165L21.5385 12.0319V5.26269ZM15.6923 3.30023L20.3077 5.97223V10.2061L17.5003 8.52238L12.5951 12.2012L11.077 11.3224V5.97223L15.6923 3.30023ZM15.6923 13.9944L13.7527 12.8713L17.5767 10.0036L20.037 11.4793L15.6923 13.9944Z" fill="#755942"/>
</svg>
