<svg width="39" height="41" viewBox="0 0 39 41" fill="none" xmlns="http://www.w3.org/2000/svg">
<rect width="38.8" height="40.3869" rx="4" fill="#493121"/>
<path opacity="0.2" d="M28.9882 15.3962L19.3938 20.993L9.79932 15.3962L19.3938 9.79947L28.9882 15.3962Z" fill="#B08A72"/>
<path d="M29.679 24.5909C29.7846 24.7741 29.8133 24.9918 29.7588 25.1961C29.7043 25.4005 29.571 25.5749 29.3882 25.6812L19.7937 31.278C19.6715 31.3493 19.5325 31.3869 19.391 31.3869C19.2495 31.3869 19.1105 31.3493 18.9882 31.278L9.39377 25.6812C9.21357 25.573 9.08327 25.3981 9.03108 25.1944C8.97889 24.9908 9.00902 24.7747 9.11493 24.5931C9.22085 24.4115 9.39403 24.2789 9.59698 24.2241C9.79993 24.1692 10.0163 24.1965 10.1993 24.3L19.394 29.6619L28.5886 24.3C28.7719 24.1944 28.9895 24.1658 29.1939 24.2203C29.3983 24.2748 29.5727 24.408 29.679 24.5909ZM28.5886 19.5028L19.394 24.8647L10.1993 19.5028C10.0173 19.4122 9.80751 19.3943 9.61275 19.4529C9.41799 19.5114 9.25287 19.642 9.15099 19.818C9.0491 19.994 9.01812 20.2022 9.06433 20.4003C9.11055 20.5983 9.2305 20.7713 9.39977 20.884L18.9942 26.4808C19.1165 26.5521 19.2554 26.5896 19.397 26.5896C19.5385 26.5896 19.6775 26.5521 19.7997 26.4808L29.3942 20.884C29.4863 20.8319 29.5672 20.762 29.6321 20.6783C29.697 20.5947 29.7447 20.499 29.7723 20.3968C29.7999 20.2945 29.807 20.1879 29.793 20.0829C29.7791 19.978 29.7445 19.8768 29.6911 19.7853C29.6378 19.6939 29.5668 19.6139 29.4823 19.5501C29.3978 19.4863 29.3015 19.4399 29.1989 19.4136C29.0964 19.3874 28.9896 19.3817 28.8848 19.397C28.7801 19.4123 28.6794 19.4483 28.5886 19.5028ZM9 15.3962C9.00032 15.2562 9.03741 15.1187 9.10757 14.9975C9.17773 14.8763 9.27849 14.7756 9.39977 14.7056L18.9942 9.10886C19.1165 9.03756 19.2554 9 19.397 9C19.5385 9 19.6775 9.03756 19.7997 9.10886L29.3942 14.7056C29.5149 14.776 29.615 14.8768 29.6846 14.998C29.7542 15.1192 29.7908 15.2565 29.7908 15.3962C29.7908 15.5359 29.7542 15.6732 29.6846 15.7944C29.615 15.9156 29.5149 16.0164 29.3942 16.0868L19.7997 21.6836C19.6775 21.7549 19.5385 21.7924 19.397 21.7924C19.2554 21.7924 19.1165 21.7549 18.9942 21.6836L9.39977 16.0868C9.27849 16.0168 9.17773 15.9161 9.10757 15.7949C9.03741 15.6738 9.00032 15.5363 9 15.3962ZM11.3866 15.3962L19.394 20.0675L27.4013 15.3962L19.394 10.7249L11.3866 15.3962Z" fill="url(#paint0_linear_2001_1077)"/>
<defs>
<linearGradient id="paint0_linear_2001_1077" x1="19.4" y1="9" x2="19.4" y2="31.3869" gradientUnits="userSpaceOnUse">
<stop offset="0.578817" stop-color="#D99A67"/>
<stop offset="1" stop-color="#D27020"/>
</linearGradient>
</defs>
</svg>
