<svg width="39" height="41" viewBox="0 0 39 41" fill="none" xmlns="http://www.w3.org/2000/svg">
<rect width="38.8" height="40.39" rx="4" fill="#674226"/>
<path d="M19.5 13.9688C18.0908 13.9688 16.7133 14.3866 15.5416 15.1695C14.3699 15.9524 13.4566 17.0652 12.9174 18.3671C12.3781 19.6691 12.237 21.1017 12.5119 22.4838C12.7868 23.8659 13.4654 25.1354 14.4619 26.1319C15.4583 27.1283 16.7279 27.8069 18.11 28.0818C19.4921 28.3568 20.9247 28.2157 22.2266 27.6764C23.5285 27.1371 24.6413 26.2239 25.4242 25.0522C26.2071 23.8805 26.625 22.5029 26.625 21.0938C26.6228 19.2047 25.8715 17.3937 24.5358 16.058C23.2 14.7223 21.389 13.9709 19.5 13.9688ZM19.5 27.0312C18.3257 27.0312 17.1777 26.683 16.2013 26.0306C15.2249 25.3782 14.4639 24.4509 14.0145 23.3659C13.5651 22.281 13.4475 21.0872 13.6766 19.9354C13.9057 18.7836 14.4712 17.7257 15.3016 16.8953C16.1319 16.0649 17.1899 15.4994 18.3417 15.2703C19.4934 15.0412 20.6872 15.1588 21.7722 15.6082C22.8571 16.0576 23.7844 16.8186 24.4369 17.7951C25.0893 18.7715 25.4375 19.9194 25.4375 21.0938C25.4357 22.6679 24.8096 24.1771 23.6965 25.2902C22.5834 26.4034 21.0742 27.0295 19.5 27.0312ZM22.8888 17.7049C22.944 17.7601 22.9878 17.8255 23.0177 17.8976C23.0476 17.9697 23.063 18.047 23.063 18.125C23.063 18.203 23.0476 18.2803 23.0177 18.3524C22.9878 18.4245 22.944 18.4899 22.8888 18.5451L19.9201 21.5138C19.8649 21.569 19.7994 21.6128 19.7273 21.6426C19.6553 21.6725 19.578 21.6878 19.5 21.6878C19.422 21.6878 19.3447 21.6725 19.2727 21.6426C19.2006 21.6128 19.1351 21.569 19.0799 21.5138C19.0248 21.4587 18.981 21.3932 18.9511 21.3211C18.9213 21.249 18.9059 21.1718 18.9059 21.0938C18.9059 21.0157 18.9213 20.9385 18.9511 20.8664C18.981 20.7943 19.0248 20.7288 19.0799 20.6737L22.0487 17.7049C22.1038 17.6497 22.1693 17.6059 22.2414 17.576C22.3135 17.5462 22.3907 17.5308 22.4688 17.5308C22.5468 17.5308 22.624 17.5462 22.6961 17.576C22.7682 17.6059 22.8337 17.6497 22.8888 17.7049ZM17.125 12.1875C17.125 12.03 17.1876 11.879 17.2989 11.7677C17.4103 11.6563 17.5613 11.5938 17.7188 11.5938H21.2813C21.4387 11.5938 21.5897 11.6563 21.7011 11.7677C21.8124 11.879 21.875 12.03 21.875 12.1875C21.875 12.345 21.8124 12.496 21.7011 12.6073C21.5897 12.7187 21.4387 12.7812 21.2813 12.7812H17.7188C17.5613 12.7812 17.4103 12.7187 17.2989 12.6073C17.1876 12.496 17.125 12.345 17.125 12.1875Z" fill="url(#paint0_linear_2001_73)"/>
<defs>
<linearGradient id="paint0_linear_2001_73" x1="19.5" y1="11.5937" x2="19.5" y2="28.2188" gradientUnits="userSpaceOnUse">
<stop stop-color="#F9D255"/>
<stop offset="1" stop-color="#CD6A3A"/>
</linearGradient>
</defs>
</svg>
