<svg width="35" height="35" viewBox="0 0 35 35" fill="none" xmlns="http://www.w3.org/2000/svg">
<circle cx="17.5" cy="17.5" r="17.5" fill="#AA6C39" fill-opacity="0.2"/>
<circle cx="17.5" cy="17.5" r="13.3475" fill="#936035" fill-opacity="0.2"/>
<path d="M17.5 10.9688C16.0908 10.9688 14.7133 11.3866 13.5416 12.1695C12.3699 12.9524 11.4566 14.0652 10.9174 15.3671C10.3781 16.6691 10.237 18.1017 10.5119 19.4838C10.7868 20.8659 11.4654 22.1354 12.4619 23.1319C13.4583 24.1283 14.7279 24.8069 16.11 25.0818C17.4921 25.3568 18.9247 25.2157 20.2266 24.6764C21.5285 24.1371 22.6413 23.2239 23.4242 22.0522C24.2071 20.8805 24.625 19.5029 24.625 18.0938C24.6228 16.2047 23.8715 14.3937 22.5358 13.058C21.2 11.7223 19.389 10.9709 17.5 10.9688ZM17.5 24.0312C16.3257 24.0312 15.1777 23.683 14.2013 23.0306C13.2249 22.3782 12.4639 21.4509 12.0145 20.3659C11.5651 19.281 11.4475 18.0872 11.6766 16.9354C11.9057 15.7836 12.4712 14.7257 13.3016 13.8953C14.1319 13.0649 15.1899 12.4994 16.3417 12.2703C17.4934 12.0412 18.6872 12.1588 19.7722 12.6082C20.8571 13.0576 21.7844 13.8186 22.4369 14.7951C23.0893 15.7715 23.4375 16.9194 23.4375 18.0938C23.4357 19.6679 22.8096 21.1771 21.6965 22.2902C20.5834 23.4034 19.0742 24.0295 17.5 24.0312ZM20.8888 14.7049C20.944 14.7601 20.9878 14.8255 21.0177 14.8976C21.0476 14.9697 21.063 15.047 21.063 15.125C21.063 15.203 21.0476 15.2803 21.0177 15.3524C20.9878 15.4245 20.944 15.4899 20.8888 15.5451L17.9201 18.5138C17.8649 18.569 17.7994 18.6128 17.7273 18.6426C17.6553 18.6725 17.578 18.6878 17.5 18.6878C17.422 18.6878 17.3447 18.6725 17.2727 18.6426C17.2006 18.6128 17.1351 18.569 17.0799 18.5138C17.0248 18.4587 16.981 18.3932 16.9511 18.3211C16.9213 18.249 16.9059 18.1718 16.9059 18.0938C16.9059 18.0157 16.9213 17.9385 16.9511 17.8664C16.981 17.7943 17.0248 17.7288 17.0799 17.6737L20.0487 14.7049C20.1038 14.6497 20.1693 14.6059 20.2414 14.576C20.3135 14.5462 20.3907 14.5308 20.4688 14.5308C20.5468 14.5308 20.624 14.5462 20.6961 14.576C20.7682 14.6059 20.8337 14.6497 20.8888 14.7049ZM15.125 9.1875C15.125 9.03003 15.1876 8.87901 15.2989 8.76766C15.4103 8.65631 15.5613 8.59375 15.7188 8.59375H19.2813C19.4387 8.59375 19.5897 8.65631 19.7011 8.76766C19.8124 8.87901 19.875 9.03003 19.875 9.1875C19.875 9.34497 19.8124 9.49599 19.7011 9.60734C19.5897 9.71869 19.4387 9.78125 19.2813 9.78125H15.7188C15.5613 9.78125 15.4103 9.71869 15.2989 9.60734C15.1876 9.49599 15.125 9.34497 15.125 9.1875Z" fill="#E3DDDD"/>
</svg>
